<svg width="696" height="551" viewBox="0 0 696 551" fill="none" xmlns="http://www.w3.org/2000/svg">
<path d="M344.585 443.989C300.487 443.989 257.753 428.338 223.665 399.702C189.577 371.067 166.243 331.219 157.64 286.948C149.037 242.678 155.697 196.723 176.485 156.915C197.272 117.106 230.902 85.9076 271.643 68.6341C312.385 51.3605 357.717 49.081 399.916 62.1839C442.116 75.2869 478.571 102.962 503.07 140.493C527.57 178.024 538.598 223.089 534.276 268.009C529.953 312.93 510.548 354.927 479.366 386.845C461.707 405.019 440.703 419.427 417.568 429.236C394.432 439.045 369.626 444.059 344.585 443.989ZM344.585 55.0528C240.168 55.0528 155.219 142.006 155.219 248.885C155.219 355.765 240.168 442.718 344.585 442.718C449.002 442.718 533.952 355.765 533.952 248.885C533.952 142.006 449.002 55.0528 344.585 55.0528Z" fill="#3F3D56"/>
<path d="M360.64 422.445C357.111 435.801 345.021 444.072 345.021 444.072C345.021 444.072 338.653 430.69 342.183 417.334C345.713 403.979 357.803 395.707 357.803 395.707C357.803 395.707 364.17 409.089 360.64 422.445Z" fill="#9A5CD1"/>
<path d="M328.53 422.445C332.06 435.801 344.15 444.072 344.15 444.072C344.15 444.072 350.517 430.69 346.987 417.334C343.458 403.979 331.367 395.707 331.367 395.707C331.367 395.707 325 409.089 328.53 422.445Z" fill="#9A5CD1"/>
<path d="M333.717 419.575C343.402 429.226 344.585 444.061 344.585 444.061C344.585 444.061 330.065 443.25 320.379 433.599C310.694 423.948 309.511 409.112 309.511 409.112C309.511 409.112 324.031 409.924 333.717 419.575Z" fill="#3F3D56"/>
<path d="M355.454 419.575C345.768 429.226 344.585 444.061 344.585 444.061C344.585 444.061 359.106 443.25 368.791 433.599C378.477 423.948 379.66 409.112 379.66 409.112C379.66 409.112 365.139 409.924 355.454 419.575Z" fill="#3F3D56"/>
<path d="M328.53 76.0615C332.06 62.7058 344.15 54.4343 344.15 54.4343C344.15 54.4343 350.517 67.8166 346.987 81.1723C343.458 94.528 331.367 102.799 331.367 102.799C331.367 102.799 325 89.4171 328.53 76.0615Z" fill="#9A5CD1"/>
<path d="M360.64 76.0615C357.111 62.7058 345.021 54.4343 345.021 54.4343C345.021 54.4343 338.653 67.8166 342.183 81.1723C345.713 94.528 357.803 102.799 357.803 102.799C357.803 102.799 364.17 89.4171 360.64 76.0615Z" fill="#9A5CD1"/>
<path d="M355.454 78.9318C345.768 69.2809 344.585 54.4452 344.585 54.4452C344.585 54.4452 359.106 55.2568 368.791 64.9076C378.477 74.5585 379.66 89.3942 379.66 89.3942C379.66 89.3942 365.139 88.5827 355.454 78.9318Z" fill="#3F3D56"/>
<path d="M333.717 78.9318C343.402 69.2809 344.585 54.4452 344.585 54.4452C344.585 54.4452 330.065 55.2568 320.379 64.9076C310.694 74.5585 309.511 89.3942 309.511 89.3942C309.511 89.3942 324.031 88.5827 333.717 78.9318Z" fill="#3F3D56"/>
<path d="M255.852 8.05637H9.08212V264.911H255.852V8.05637Z" fill="#9A5CD1"/>
<path d="M246.527 14.5756H26.6995H14.2398V28.2404V255.074H26.6995V28.2404H246.527V14.5756Z" fill="#3F3D56"/>
<path opacity="0.3" d="M246.527 14.5756H26.6995H14.2398V28.2404V255.074H26.6995V28.2404H246.527V14.5756Z" fill="black"/>
<path opacity="0.1" d="M210.928 28.2405H201.138H26.6995V61.0357H201.138V255.074H246.527V28.2405H210.928Z" fill="black"/>
<path d="M0 0V269.65H260.767V0H0ZM246.527 255.074H14.2398V14.5757H246.527V255.074Z" fill="#3F3D56"/>
<path d="M183.003 279.591C183.003 279.591 194.794 302.976 201.427 308.257C208.06 313.537 190.741 319.949 190.741 319.949L170.474 287.512L183.003 279.591Z" fill="#A0616A"/>
<path d="M111.517 222.638C111.517 222.638 166.421 237.348 171.211 247.154C176.001 256.961 190.741 280.723 190.741 280.723L169 298.45L147.628 265.636L88.6705 238.479L111.517 222.638Z" fill="#2F2E41"/>
<path d="M188.898 310.52C188.898 310.52 183.74 305.994 182.266 309.011C180.792 312.029 176.37 327.493 176.37 327.493C176.37 327.493 182.634 333.528 195.531 329.756C195.531 329.756 198.847 327.116 204.006 329.756C209.165 332.396 228.326 327.116 227.589 318.441C226.852 309.766 207.323 310.52 207.323 310.52C207.323 310.52 199.097 301.087 198.051 304.672C197.005 308.257 198.479 308.634 198.479 308.634C198.479 308.634 191.846 315.8 188.898 310.52Z" fill="#2F2E41"/>
<path d="M125.887 302.599L122.203 334.282H140.258C140.258 334.282 138.784 309.765 139.153 306.748C139.521 303.731 125.887 302.599 125.887 302.599Z" fill="#A0616A"/>
<path d="M136.205 232.822C136.205 232.822 146.154 247.909 140.258 249.04C134.363 250.172 129.572 232.822 129.572 232.822H136.205Z" fill="#A0616A"/>
<path d="M61.0341 231.313C61.0341 231.313 53.6644 253.566 82.7747 259.601C111.885 265.636 120.729 270.539 120.729 270.539L124.414 309.011L149.839 310.52C149.839 310.52 161.999 252.058 146.154 244.514C130.309 236.971 96.7772 228.296 96.7772 228.296L61.0341 231.313Z" fill="#2F2E41"/>
<path d="M124.414 329.379C124.414 329.379 129.572 326.738 130.309 326.738C130.309 326.738 133.548 319.092 139.483 319.898L152.418 339.185C152.418 339.185 171.948 353.518 158.314 357.29C144.68 361.061 133.994 358.044 133.994 358.044L128.467 353.895C128.467 353.895 129.204 349.746 124.414 350.501C124.414 350.501 114.464 346.352 114.833 343.334C115.201 340.317 123.028 327.183 123.028 327.183L124.414 329.379Z" fill="#2F2E41"/>
<path d="M127.546 157.952C135.686 157.952 142.285 151.198 142.285 142.865C142.285 134.533 135.686 127.778 127.546 127.778C119.405 127.778 112.806 134.533 112.806 142.865C112.806 151.198 119.405 157.952 127.546 157.952Z" fill="#A0616A"/>
<path d="M115.57 138.151C115.57 138.151 102.304 147.957 99.725 148.335C97.1456 148.712 111.885 167.193 111.885 167.193C111.885 167.193 118.886 155.501 123.308 153.992C127.73 152.483 115.57 138.151 115.57 138.151Z" fill="#A0616A"/>
<path d="M105.621 150.598C105.621 150.598 100.094 143.054 96.7772 143.054C93.4608 143.054 63.6135 146.449 61.0341 171.719C58.4548 196.99 59.9287 241.12 59.9287 241.12C59.9287 241.12 57.7178 230.182 82.4063 234.708C82.4063 234.708 111.885 228.296 117.044 228.296C122.203 228.296 124.414 174.36 124.414 174.36L116.024 161.045C116.024 161.045 112.254 168.325 105.621 150.598Z" fill="#D0CDE1"/>
<path d="M118.886 171.342L124.413 174.36L131.046 215.849L140.258 237.348C140.258 237.348 130.309 233.842 129.572 238.047L114.833 216.226L118.886 171.342Z" fill="#D0CDE1"/>
<path d="M124.232 130.492L132.25 131.518C132.097 133.188 132.14 135.257 133.586 136.047C134.265 136.419 135.128 136.4 135.73 136.891C137.179 138.074 135.762 140.617 136.58 142.319L138.925 142.954C139.207 143.493 139.59 143.971 140.053 144.358C140.515 144.745 141.048 145.035 141.621 145.211C142.193 145.387 142.794 145.445 143.389 145.382C143.983 145.319 144.56 145.137 145.085 144.845C146.661 143.876 147.464 142.026 148.173 140.29C149.02 138.216 149.885 135.988 149.461 133.782C149.005 131.412 147.114 129.443 147.028 127.03C146.99 125.95 147.212 124.604 146.323 124.022C145.914 123.825 145.473 123.705 145.023 123.669C142.974 123.231 141.834 121.061 140.306 119.597C137.104 116.529 132.188 116.609 127.81 116.877C126.557 116.881 125.313 117.103 124.133 117.533C122.798 118.218 121.618 119.181 120.668 120.361C118.32 122.924 116.034 125.608 114.486 128.744C112.937 131.879 112.174 135.543 113.016 138.949C112.933 138.621 115.719 136.477 116.066 136.133C117.155 135.054 117.254 134.538 117.844 133.296C119.217 130.401 121.128 130.096 124.232 130.492Z" fill="#2F2E41"/>
<path opacity="0.1" d="M100.646 179.074L101.752 205.477L118.142 225.152L103.226 203.214L100.646 179.074Z" fill="black"/>
<path opacity="0.1" d="M71.1677 186.241L84.0645 216.792L100.646 230.747L82.9587 218.301L71.1677 186.241Z" fill="black"/>
<path d="M141.223 211.004L149.015 216.49C149.403 216.803 149.674 217.244 149.783 217.737C149.891 218.231 149.83 218.747 149.611 219.2L148.568 221.402L148.81 221.572L147.626 224.073L147.384 223.903L138.8 242.035C138.711 242.273 138.571 242.488 138.39 242.663C138.209 242.838 137.991 242.97 137.754 243.047C137.516 243.125 137.265 243.147 137.018 243.111C136.771 243.076 136.535 242.984 136.327 242.843L129.004 237.687C128.558 237.327 128.246 236.82 128.122 236.253C127.997 235.686 128.067 235.092 128.32 234.571L139.157 211.678C139.232 211.479 139.349 211.3 139.5 211.154C139.651 211.007 139.833 210.898 140.031 210.833C140.23 210.768 140.44 210.75 140.646 210.779C140.852 210.809 141.049 210.885 141.223 211.004Z" fill="#3F3D56"/>
<path d="M129.127 234.37L137.514 240.276L148.456 217.165L140.068 211.259L129.127 234.37Z" fill="white"/>
<path d="M125.485 229.283C125.485 229.283 140.102 239.651 135.008 242.893C129.914 246.136 119.304 231.745 119.304 231.745L125.485 229.283Z" fill="#A0616A"/>
<path d="M82.0378 152.483C82.0378 152.483 62.8766 158.141 68.4038 175.491C69.7372 179.676 71.3492 184.169 73.028 188.577C78.3085 202.442 84.2487 215.472 84.2487 215.472L100.904 230.886L123.308 237.348L125.887 235.085C125.887 235.085 126.624 227.918 123.308 227.164C119.992 226.41 114.833 223.392 114.833 223.392L101.567 203.402C101.567 203.402 101.199 153.615 82.0378 152.483Z" fill="#D0CDE1"/>
<path d="M446.24 449.571L687.134 449.571V198.832L446.24 198.832V449.571Z" fill="#9A5CD1"/>
<path d="M455.342 205.196H669.936H682.099V218.536V439.969H669.936V218.536H455.342V205.196Z" fill="#3F3D56"/>
<path opacity="0.3" d="M455.342 205.196H669.936H682.099V218.536V439.969H669.936V218.536H455.342V205.196Z" fill="black"/>
<path opacity="0.1" d="M490.095 218.536H499.651H669.936V250.55H499.651V439.969H455.342V218.536H490.095Z" fill="black"/>
<path d="M441.442 190.968V454.198H696V190.968H441.442ZM455.342 205.196H682.099V439.969H455.342V205.196Z" fill="#3F3D56"/>
<path d="M590.187 315.07C584.706 305.589 573.861 305.147 573.861 305.147C573.861 305.147 563.293 303.764 556.514 318.203C550.195 331.662 541.475 344.656 555.11 347.807L557.573 339.96L559.098 348.391C561.04 348.534 562.987 348.568 564.932 348.493C579.535 348.01 593.441 348.634 592.994 343.27C592.398 336.14 595.462 324.192 590.187 315.07Z" fill="#2F2E41"/>
<path d="M550.678 391.587L549.524 412.834L583.352 416.376L584.505 394.341L572.972 386.865L550.678 391.587Z" fill="#A0616A"/>
<path d="M641.589 438.213C640.575 428.176 600.301 423.619 590.623 422.668L587.004 420.507L585.851 407.916C585.851 407.916 550.101 404.768 547.41 404.375C544.719 403.981 542.413 409.096 542.413 410.277C542.413 411.13 541.91 417.222 539.89 420.833C535.529 424.42 522.231 435.707 522.231 439.984C522.231 445.099 532.802 509.432 532.802 509.432L533.956 522.81L544.719 524.777L543.95 483.069C543.95 483.069 547.794 459.067 542.413 452.378V449.624C542.413 449.624 558.197 445.415 563.76 440.831C565.372 440.477 569.902 439.603 572.404 440.363C572.747 440.57 573.143 440.782 573.583 440.998C573.639 441.05 573.692 441.105 573.742 441.164L573.785 441.096C580.982 444.544 599.443 448.893 606.993 447.657C612.816 446.747 618.769 447.855 623.907 450.804C619.678 456.313 622.754 472.052 622.754 472.052L623.138 505.89L628.52 512.579H635.823V494.086C635.823 494.086 642.743 449.624 641.589 438.213Z" fill="#2F2E41"/>
<path d="M570.474 341.026C577.48 341.026 583.16 335.212 583.16 328.041C583.16 320.87 577.48 315.056 570.474 315.056C563.468 315.056 557.789 320.87 557.789 328.041C557.789 335.212 563.468 341.026 570.474 341.026Z" fill="#A0616A"/>
<path d="M562.786 336.304C562.786 336.304 564.708 344.96 562.017 345.747C559.889 346.469 557.83 347.391 555.867 348.502L552.792 358.732V368.962L590.079 373.29L591.232 369.749V364.634L587.004 356.764L585.082 354.797C585.082 354.797 576.625 345.354 578.547 336.304H562.786Z" fill="#A0616A"/>
<path d="M596.037 367.585C596.037 367.585 597.19 381.356 596.037 387.652C594.884 393.948 595.268 403.391 595.268 403.391L586.812 401.817V380.57L588.734 369.159L596.037 367.585Z" fill="#A0616A"/>
<path d="M575.188 313.222C579.519 313.222 583.03 309.628 583.03 305.195C583.03 300.762 579.519 297.169 575.188 297.169C570.858 297.169 567.347 300.762 567.347 305.195C567.347 309.628 570.858 313.222 575.188 313.222Z" fill="#2F2E41"/>
<path d="M566.521 303.083C566.522 301.101 567.238 299.189 568.534 297.715C569.829 296.241 571.611 295.311 573.537 295.102C573.263 295.072 572.988 295.057 572.712 295.057C570.632 295.057 568.638 295.902 567.167 297.408C565.697 298.913 564.871 300.954 564.871 303.083C564.871 305.212 565.697 307.253 567.167 308.759C568.638 310.264 570.632 311.109 572.712 311.109C572.988 311.109 573.263 311.094 573.537 311.064C571.611 310.856 569.829 309.925 568.534 308.451C567.238 306.978 566.522 305.065 566.521 303.083Z" fill="#2F2E41"/>
<path d="M587.764 314.156L577.05 308.411L562.254 310.761L559.193 324.6L566.813 324.301L568.942 319.216V324.217L572.458 324.078L574.499 315.984L575.774 324.6L588.274 324.339L587.764 314.156Z" fill="#2F2E41"/>
<path d="M544.121 509.596C544.121 509.596 549.576 512.224 551.18 513.209C552.784 514.195 559.202 512.224 557.918 518.136C556.635 524.048 551.18 529.631 551.18 529.631C551.18 529.631 548.613 532.587 548.613 534.557C548.613 536.528 542.196 551.636 534.495 550.979C526.794 550.322 528.078 542.44 528.078 542.44L529.682 533.901C529.682 533.901 532.891 519.449 533.532 519.778C534.174 520.106 535.778 522.405 535.778 522.405C535.778 522.405 543.8 519.121 544.121 509.596Z" fill="#D0CDE1"/>
<path d="M624.12 499.76C624.12 499.76 618.666 502.387 617.061 503.372C615.457 504.358 609.04 502.387 610.323 508.299C611.607 514.211 617.061 519.794 617.061 519.794C617.061 519.794 619.628 522.75 619.628 524.721C619.628 526.691 626.046 541.799 633.746 541.142C641.447 540.486 640.164 532.603 640.164 532.603L638.559 524.064C638.559 524.064 635.351 509.613 634.709 509.941C634.067 510.269 632.463 512.568 632.463 512.568C632.463 512.568 624.441 509.284 624.12 499.76Z" fill="#D0CDE1"/>
<path d="M581.828 406.143V403.02H581.15V401.633C581.15 401.314 581.088 400.998 580.969 400.703C580.85 400.408 580.675 400.141 580.455 399.915C580.234 399.69 579.973 399.511 579.685 399.389C579.397 399.267 579.088 399.204 578.777 399.204H570.642C570.012 399.204 569.409 399.46 568.964 399.915C568.519 400.371 568.269 400.988 568.269 401.633V424.879C568.269 425.523 568.519 426.141 568.964 426.597C569.409 427.052 570.012 427.308 570.642 427.308H578.777C579.406 427.308 580.01 427.052 580.455 426.597C580.9 426.141 581.15 425.523 581.15 424.879V410.307H581.828V407.184H581.15V406.143H581.828Z" fill="#D0CDE1"/>
<path d="M575.048 407.531C575.797 407.531 576.404 406.91 576.404 406.143C576.404 405.377 575.797 404.755 575.048 404.755C574.299 404.755 573.692 405.377 573.692 406.143C573.692 406.91 574.299 407.531 575.048 407.531Z" fill="#3F3D56"/>
<path d="M541.067 360.896L534.148 390.013C534.148 390.013 531.457 396.308 537.608 400.243C543.758 404.178 557.597 409.293 557.597 409.293C557.597 409.293 569.898 426.606 571.435 419.523C572.973 412.441 562.209 403.391 562.209 403.391L543.374 391.193L550.677 370.733L541.067 360.896Z" fill="#A0616A"/>
<path d="M591.04 397.489C591.04 397.489 596.806 396.702 596.422 403.391C596.037 410.08 588.349 410.867 588.349 410.867C588.349 410.867 584.889 425.819 579.892 423.064C574.895 420.31 582.583 405.358 582.583 405.358L589.118 400.243L591.04 397.489Z" fill="#A0616A"/>
<path d="M553.945 358.338L560.095 345.354L547.794 349.682C547.794 349.682 540.875 353.223 540.49 361.486C540.106 369.749 549.332 374.077 549.332 374.077C549.332 374.077 550.869 385.881 550.101 387.455C549.332 389.029 550.101 395.325 550.101 395.325C550.101 395.325 564.9 391.193 572.204 396.308C579.508 401.423 585.466 398.472 585.466 398.472C585.466 398.472 585.082 388.636 588.157 387.062C591.232 385.488 593.923 378.012 591.232 373.29C591.232 373.29 597.383 374.077 596.998 368.175C596.614 362.273 593.539 357.158 588.541 354.797C583.544 352.436 582.992 352.059 582.992 352.059L590.079 365.421V368.962C590.079 368.962 577.532 360.765 565.119 360.082C561.069 359.892 557.093 361.232 553.945 363.847L553.945 363.847V358.338Z" fill="#2F2E41"/>
</svg>
