<svg width="627" height="375" viewBox="0 0 627 375" fill="none" xmlns="http://www.w3.org/2000/svg">
<g clip-path="url(#clip0)">
<path d="M480.046 370.759C472.019 363.974 467.143 353.255 468.422 342.819C469.7 332.384 477.62 322.791 487.893 320.575C498.167 318.359 509.877 324.493 512.998 334.533C514.715 315.177 516.694 295.011 526.98 278.528C536.295 263.604 552.427 252.924 569.911 251.014C587.395 249.103 605.803 256.319 616.707 270.124C627.611 283.929 630.281 303.999 622.644 319.848C617.018 331.524 606.654 340.213 595.794 347.282C560.702 369.933 518.614 379.144 477.274 373.22L480.046 370.759Z" fill="#FCCC4C"/>
<path d="M599.418 256.719C584.991 268.474 571.757 281.621 559.905 295.97C541.357 318.349 526.348 343.44 515.401 370.369C514.6 372.333 517.788 373.189 518.581 371.246C536.493 327.481 565.087 288.907 601.75 259.052C603.396 257.711 601.051 255.389 599.418 256.719Z" fill="white"/>
<path d="M201.841 368.916C212.867 359.596 219.564 344.873 217.808 330.54C216.051 316.207 205.173 303.031 191.063 299.988C176.953 296.944 160.868 305.369 156.582 319.158C154.224 292.574 151.506 264.876 137.377 242.236C124.584 221.737 102.426 207.069 78.4119 204.445C54.3977 201.821 29.1139 211.732 14.1371 230.693C-0.839673 249.655 -4.50667 277.22 5.98267 298.989C13.7098 315.026 27.9459 326.96 42.8618 336.67C90.4486 367.646 149.48 380.565 205.649 372.296" fill="#FCCC4C"/>
<path d="M37.8843 212.281C57.6989 228.427 75.8768 246.484 92.155 266.192C108.436 285.88 122.769 307.102 134.954 329.558C141.765 342.155 147.883 355.115 153.281 368.379C154.382 371.078 150.002 372.252 148.914 369.584C139.352 346.199 127.522 323.808 113.593 302.731C99.7328 281.731 83.8685 262.126 66.2234 244.19C56.2433 234.051 45.7134 224.468 34.6815 215.485C32.4203 213.643 35.6417 210.455 37.8843 212.281L37.8843 212.281Z" fill="white"/>
<path d="M450.071 374.179H187.019V104.179C187.019 46.7344 233.736 0 291.158 0H345.931C403.354 0 450.071 46.7344 450.071 104.179V374.179Z" fill="#F2F2F2"/>
<path d="M395.298 374.179H187.019V104.179C186.961 82.1675 193.929 60.7124 206.907 42.9374C207.385 42.285 207.862 41.6412 208.355 41.0043C214.632 32.7681 222.102 25.5146 230.519 19.4832C230.994 19.1372 231.472 18.7971 231.956 18.457C238.999 13.5815 246.617 9.59581 254.638 6.59074C255.114 6.41014 255.599 6.2292 256.084 6.05564C263.338 3.466 270.857 1.69211 278.503 0.766718C278.977 0.70194 279.464 0.65125 279.951 0.600559C287.402 -0.196443 294.917 -0.196443 302.368 0.600559C302.853 0.65125 303.34 0.701933 303.82 0.767411C311.464 1.69286 318.981 3.46653 326.233 6.05567C326.718 6.22923 327.203 6.41016 327.681 6.59111C335.603 9.55827 343.131 13.4845 350.099 18.2821C350.583 18.6148 351.068 18.9548 351.545 19.2949C356.263 22.6638 360.694 26.4169 364.794 30.5159C368.082 33.8038 371.145 37.3085 373.964 41.0065C374.455 41.6412 374.932 42.2851 375.409 42.9363C388.388 60.7116 395.356 82.1671 395.298 104.179V374.179Z" fill="#CCCCCC"/>
<path d="M378.362 253.418C384.73 253.418 389.893 248.253 389.893 241.883C389.893 235.512 384.73 230.347 378.362 230.347C371.994 230.347 366.831 235.512 366.831 241.883C366.831 248.253 371.994 253.418 378.362 253.418Z" fill="#9A5CD1"/>
<path d="M428.521 366.092H419.686L415.482 331.999L428.523 332L428.521 366.092Z" fill="#FFB8B8"/>
<path d="M413.374 363.566H430.414V374.299H402.646C402.646 372.89 402.923 371.494 403.462 370.192C404.001 368.89 404.792 367.707 405.788 366.71C406.784 365.713 407.967 364.923 409.269 364.383C410.57 363.844 411.965 363.566 413.374 363.566Z" fill="#2F2E41"/>
<path d="M472.483 366.092H463.648L459.444 331.999L472.485 332L472.483 366.092Z" fill="#FFB8B8"/>
<path d="M457.337 363.566H474.376V374.299H446.608C446.608 372.89 446.885 371.494 447.424 370.192C447.964 368.89 448.754 367.707 449.75 366.71C450.746 365.713 451.929 364.923 453.231 364.383C454.532 363.844 455.928 363.566 457.337 363.566Z" fill="#2F2E41"/>
<path d="M384.198 244.168C383.562 243.231 383.14 242.166 382.96 241.048C382.78 239.93 382.848 238.787 383.158 237.698C383.468 236.609 384.012 235.601 384.754 234.745C385.495 233.89 386.415 233.207 387.449 232.746L417.484 149.931L432.263 158L397.969 237.14C398.629 238.929 398.61 240.897 397.916 242.672C397.222 244.448 395.902 245.907 394.204 246.773C392.506 247.639 390.55 247.853 388.706 247.372C386.862 246.892 385.258 245.752 384.198 244.168Z" fill="#FFB8B8"/>
<path d="M467.97 259.729C466.988 259.166 466.142 258.394 465.49 257.468C464.839 256.542 464.398 255.485 464.199 254.37C464 253.256 464.048 252.111 464.34 251.017C464.631 249.923 465.158 248.906 465.885 248.037L456.58 160.434L473.4 161.203L477.267 247.372C478.644 248.69 479.489 250.468 479.644 252.368C479.798 254.268 479.251 256.158 478.105 257.681C476.959 259.205 475.294 260.254 473.426 260.632C471.558 261.009 469.617 260.688 467.97 259.729Z" fill="#FFB8B8"/>
<path d="M441.138 134.592C450.914 134.592 458.839 126.664 458.839 116.884C458.839 107.105 450.914 99.1766 441.138 99.1766C431.362 99.1766 423.438 107.105 423.438 116.884C423.438 126.664 431.362 134.592 441.138 134.592Z" fill="#FFB8B8"/>
<path d="M467.857 239.805H414.492L414.556 239.39C414.652 238.769 424.067 177.071 417.123 156.886C416.427 154.902 416.488 152.731 417.295 150.79C418.103 148.849 419.6 147.275 421.497 146.372H421.498C431.423 141.696 450.475 135.939 466.555 149.911C468.921 152.001 470.769 154.613 471.952 157.541C473.136 160.468 473.622 163.631 473.373 166.779L467.857 239.805Z" fill="#D0CDE1"/>
<path d="M424.742 186.189L400.716 181.313L411.978 154.616C412.652 152.03 414.324 149.817 416.626 148.463C418.929 147.108 421.674 146.723 424.261 147.391C426.847 148.059 429.063 149.725 430.423 152.026C431.782 154.326 432.174 157.072 431.513 159.661L424.742 186.189Z" fill="#D0CDE1"/>
<path d="M455.512 195.242L454.068 162.12C452.973 155.894 456.536 150.008 462.015 149.046C467.496 148.087 472.848 152.406 473.949 158.678L479.378 189.627L455.512 195.242Z" fill="#D0CDE1"/>
<path d="M466.082 235.84C474.668 268.555 475.605 310.149 473.288 355.52L461.757 354.078L440.857 267.562L429.326 355.52L416.354 354.799C412.479 307.194 408.705 266.326 414.913 239.445L466.082 235.84Z" fill="#2F2E41"/>
<path d="M452.801 130.569C449.499 134.088 443.367 132.199 442.936 127.392C442.903 127.018 442.905 126.643 442.944 126.27C443.166 124.141 444.396 122.207 444.101 119.959C444.034 119.399 443.826 118.866 443.496 118.41C440.864 114.885 434.687 119.986 432.204 116.795C430.681 114.839 432.471 111.758 431.302 109.571C429.76 106.684 425.192 108.108 422.327 106.528C419.14 104.769 419.33 99.8766 421.428 96.9009C423.987 93.2718 428.474 91.3354 432.904 91.0563C437.335 90.7772 441.735 91.9753 445.871 93.5879C450.571 95.4201 455.231 97.9523 458.123 102.086C461.64 107.114 461.979 113.873 460.22 119.751C459.15 123.327 455.498 127.696 452.801 130.569Z" fill="#2F2E41"/>
<path d="M605.366 374.643H73.2852C73.058 374.642 72.8404 374.552 72.68 374.391C72.5196 374.23 72.4296 374.012 72.4296 373.785C72.4296 373.557 72.5196 373.339 72.68 373.178C72.8404 373.018 73.058 372.927 73.2852 372.926H605.366C605.593 372.927 605.811 373.018 605.971 373.178C606.132 373.339 606.222 373.557 606.222 373.785C606.222 374.012 606.132 374.23 605.971 374.391C605.811 374.552 605.593 374.642 605.366 374.643Z" fill="#3F3D56"/>
<path d="M338.003 295.955H244.314C243.08 295.961 241.894 295.478 241.016 294.611C240.137 293.744 239.639 292.564 239.629 291.33V82.1286C239.639 80.8942 240.137 79.7141 241.016 78.847C241.894 77.9799 243.08 77.4967 244.314 77.5034H338.003C339.237 77.4967 340.423 77.9799 341.302 78.847C342.18 79.7141 342.678 80.8942 342.688 82.1286V291.33C342.678 292.564 342.18 293.744 341.302 294.611C340.423 295.478 339.237 295.961 338.003 295.955Z" fill="white"/>
<path d="M342.688 145.194H239.629V146.636H342.688V145.194Z" fill="#CCCCCC"/>
<path d="M343.048 227.463H239.99V228.905H343.048V227.463Z" fill="#CCCCCC"/>
<path d="M273.502 77.5034H272.06V296.676H273.502V77.5034Z" fill="#CCCCCC"/>
<path d="M309.536 77.5034H308.095V296.676H309.536V77.5034Z" fill="#CCCCCC"/>
</g>
<defs>
<clipPath id="clip0">
<rect width="627" height="375" fill="white"/>
</clipPath>
</defs>
</svg>
