<svg width="592" height="355" viewBox="0 0 592 355" fill="none" xmlns="http://www.w3.org/2000/svg">
<g clip-path="url(#clip0)">
<path d="M40.9252 333.108L75.8399 283.094L40.9074 338.548L40.8871 344.239C38.3972 344.218 35.9325 344.137 33.493 343.997C33.4819 342.704 36.4494 271.614 36.3233 270.328C36.4955 270.279 36.5922 263.604 36.6605 263.312L0.184814 208.658L36.6997 258.139L36.8085 259.602L38.9748 204.369L7.62002 147.809L39.2228 194.664C39.2345 193.913 40.7186 80.5075 40.7332 79.8077C40.7421 80.1794 41.4232 170.056 41.4283 170.435L71.4154 134.258L41.3995 178.208L41.2462 227.641L69.0739 179.839C34.3452 249.551 42.0308 225.156 41.1439 262.396L81.5653 195.835L41.1092 271.985L40.9252 333.108Z" fill="white"/>
<path d="M575.064 339.898L589.614 319.056L575.057 342.165L575.049 344.537C574.011 344.528 572.984 344.494 571.967 344.436C571.963 343.897 573.199 314.272 573.147 313.736C573.218 313.716 573.259 310.934 573.287 310.812L558.087 288.037L573.303 308.657L573.349 309.266L574.252 286.25L561.185 262.679L574.355 282.205C574.36 281.892 574.978 234.633 574.984 234.342C574.988 234.497 575.272 271.95 575.274 272.108L587.77 257.033L575.262 275.348L575.198 295.948L586.795 276.027C572.322 305.078 575.525 294.912 575.156 310.431L592 282.693L575.141 314.427L575.064 339.898Z" fill="white"/>
<path d="M295.032 355C457.974 355 590.065 349.84 590.065 343.476C590.065 337.111 457.974 331.952 295.032 331.952C132.09 331.952 0 337.111 0 343.476C0 349.84 132.09 355 295.032 355Z" fill="white"/>
<path d="M438.145 136.112H101.28V336.343H438.145V136.112Z" fill="#3F3D56"/>
<path d="M184.648 136.112C184.304 157.182 175.668 177.273 160.601 192.053C145.535 206.833 125.246 215.117 104.109 215.119C103.162 215.119 102.221 215.102 101.28 215.069V136.112H184.648Z" fill="#FCCC4C"/>
<path d="M286.191 336.342H254.152C255.357 333.074 257.54 330.253 260.405 328.26C263.269 326.267 266.678 325.198 270.171 325.198C273.664 325.198 277.074 326.267 279.938 328.26C282.803 330.253 284.985 333.074 286.191 336.342Z" fill="#FCCC4C"/>
<path d="M438.145 232.773V300.217C429.46 299.794 421.271 296.056 415.275 289.778C409.278 283.501 405.934 275.164 405.934 266.495C405.934 257.826 409.278 249.489 415.275 243.211C421.271 236.934 429.46 233.196 438.145 232.773Z" fill="#FCCC4C"/>
<path d="M376.26 208.871H163.749C158.267 208.871 153.824 213.301 153.824 218.766V218.766C153.824 224.231 158.267 228.661 163.749 228.661H376.26C381.741 228.661 386.185 224.231 386.185 218.766C386.185 213.301 381.741 208.871 376.26 208.871Z" fill="white"/>
<path d="M376.26 247.869H163.749C158.267 247.869 153.824 252.299 153.824 257.764V257.764C153.824 263.229 158.267 267.659 163.749 267.659H376.26C381.741 267.659 386.185 263.229 386.185 257.764C386.185 252.299 381.741 247.869 376.26 247.869Z" fill="white"/>
<path d="M376.26 286.867H314.643C309.162 286.867 304.718 291.297 304.718 296.762C304.718 302.227 309.162 306.657 314.643 306.657H376.26C381.741 306.657 386.185 302.227 386.185 296.762C386.185 291.297 381.741 286.867 376.26 286.867Z" fill="white"/>
<path d="M491.566 61.5281C491.566 61.5281 500.829 65.1195 501.344 76.92C501.858 88.7205 498.77 121.557 498.77 121.557C498.77 121.557 510.092 137.975 501.344 142.592C492.595 147.21 491.566 124.122 491.566 124.122L481.273 75.3808C481.273 75.3808 487.449 61.015 491.566 61.5281Z" fill="#A0616A"/>
<path d="M396.876 99.4948C396.876 99.4948 374.747 113.86 373.718 102.573C372.689 91.2858 380.408 47.1623 380.408 47.1623C380.408 47.1623 381.438 28.1789 392.244 32.7965C403.051 37.4141 389.157 53.3191 389.157 53.3191L390.701 89.2335L400.993 88.7204L396.876 99.4948Z" fill="#A0616A"/>
<path d="M432.385 112.834C432.385 112.834 364.455 87.6944 368.058 116.939C371.66 146.184 389.157 183.124 389.157 183.124L395.333 192.872H408.198L399.964 140.027C399.964 140.027 429.297 156.445 438.046 153.88C438.046 153.88 449.367 229.3 453.484 234.944C457.601 240.587 464.806 308.825 464.806 308.825L471.496 317.034H484.361V201.594C484.361 201.594 506.49 129.766 489.507 126.174C472.525 122.583 432.385 112.834 432.385 112.834Z" fill="#2F2E41"/>
<path d="M393.788 186.202C393.788 186.202 390.701 180.559 385.555 186.202C380.408 191.846 368.058 198.516 368.058 198.516C368.058 198.516 341.298 204.673 362.911 209.803C384.525 214.934 387.098 209.803 387.098 209.803C387.098 209.803 390.701 210.83 393.788 211.856C396.876 212.882 416.946 209.29 416.946 206.212C416.946 203.134 410.133 184.736 407.364 187.522C404.595 190.307 393.788 186.202 393.788 186.202Z" fill="#2F2E41"/>
<path d="M472.482 311.955C472.482 311.955 464.894 305.725 463.109 307.505C461.323 309.285 451.95 321.3 451.95 321.3C451.95 321.3 426.955 340.435 449.718 343.55C472.482 346.665 471.143 338.21 471.143 338.21H478.284C479.177 338.21 491.228 332.87 490.782 330.645C490.335 328.42 484.979 310.277 483.194 311.561C481.409 312.845 472.482 311.955 472.482 311.955Z" fill="#2F2E41"/>
<path d="M403.566 42.0317C413.229 42.0317 421.063 34.2216 421.063 24.5875C421.063 14.9534 413.229 7.14334 403.566 7.14334C393.903 7.14334 386.069 14.9534 386.069 24.5875C386.069 34.2216 393.903 42.0317 403.566 42.0317Z" fill="#A0616A"/>
<path d="M415.917 22.5353C415.917 22.5353 429.297 33.8227 438.56 33.8227C447.823 33.8227 425.18 54.8583 425.18 54.8583L405.11 36.9011L415.917 22.5353Z" fill="#A0616A"/>
<path d="M421.063 54.8583L420.662 50.8162C420.662 50.8162 430.841 32.7966 433.929 31.2574C437.016 29.7182 439.075 29.7182 439.075 29.7182C439.075 29.7182 449.367 18.9439 460.689 24.5875C472.01 30.2312 498.77 66.1457 498.77 66.1457C498.77 66.1457 479.729 67.6849 482.303 82.5637C482.303 82.5637 501.343 131.305 496.197 131.818C491.051 132.331 475.613 128.739 459.659 135.922C443.706 143.105 436.502 138.488 436.502 138.488L428.268 111.808C428.268 111.808 412.829 103.086 413.344 95.3903L390.958 105.395L393.016 86.4117L406.654 70.7633C406.654 70.7633 404.081 68.711 421.063 54.8583Z" fill="#D0CDE1"/>
<path d="M387.471 26.4735C386.776 27.244 385.904 27.8358 384.93 28.1986C383.934 28.4788 382.678 28.1352 382.281 27.1819L383.021 26.2218L380.803 24.8478L381.77 23.7172L379.983 21.7832L381.393 20.6679L378.708 18.7537C382.188 13.0933 385.951 7.36208 391.444 3.60979C396.937 -0.142505 404.613 -1.47583 410.24 2.07333C413.162 3.91601 415.228 6.84064 416.883 9.86684C420.211 15.9528 423.145 21.8853 423.578 28.8037C421.487 26.7739 418.435 25.6301 416.344 23.6004C415.419 22.621 414.37 21.765 413.224 21.0537C411.037 19.8243 408.421 19.7155 405.973 19.161C403.914 18.6947 402.579 17.7697 401.021 16.4473C399.169 14.8742 399.093 15.4824 397.223 17.2536C393.974 20.329 390.724 23.4023 387.471 26.4735Z" fill="#2F2E41"/>
</g>
<defs>
<clipPath id="clip0">
<rect width="592" height="355" fill="white"/>
</clipPath>
</defs>
</svg>
