<svg width="554" height="386" viewBox="0 0 554 386" fill="none" xmlns="http://www.w3.org/2000/svg">
<g clip-path="url(#clip0)">
<path d="M55.4873 65.6559C70.4635 65.6559 82.604 53.5107 82.604 38.5288C82.604 23.5469 70.4635 11.4017 55.4873 11.4017C40.5112 11.4017 28.3706 23.5469 28.3706 38.5288C28.3706 53.5107 40.5112 65.6559 55.4873 65.6559Z" fill="#FCCC4C"/>
<path opacity="0.1" d="M52.1744 93.7516C63.56 119.478 49.0363 149.103 31.9404 171.41C26.2184 178.891 19.9015 186.733 19.1082 196.116C18.1516 207.593 25.9209 218.143 35.1368 225.04C51.9469 237.609 74.9048 241.495 94.9114 235.152C112.2 229.673 126.735 217.297 144.175 212.308C173.339 203.952 204.253 217.805 229.229 235.065C246.909 247.266 265.842 262.134 287.155 259.519C302.151 257.681 314.878 247.149 323.517 234.75C327.687 228.763 331.315 222.053 337.387 218.015C340.998 215.611 345.238 214.339 349.478 213.428C388.202 205.148 429.3 225.355 467.511 214.963C493.321 207.961 513.899 187.538 526.697 164.041C539.494 140.543 545.467 114.011 550.442 87.724C553.977 69.0519 556.911 48.8801 548.785 31.7076C540.188 13.5256 520.286 2.5032 500.286 0.437589C480.285 -1.62802 460.226 4.07282 441.8 12.1135C418.778 22.1848 396.211 36.2823 371.083 36.329C353.97 36.364 337.649 29.7937 321.288 24.7814C293.933 16.4081 265.486 12.2477 237.139 8.40826C209.998 4.73218 182.59 1.31285 155.287 3.48348C135.969 5.0181 118.908 12.4053 100.161 15.8246C87.9412 18.0536 75.6631 16.4081 63.6709 20.1425C48.9022 24.7639 33.7136 35.4712 32.897 52.3345C32.127 68.3867 46.1374 80.1035 52.1744 93.7516Z" fill="#CBEEC2"/>
<path d="M351.076 116.66C348.586 110.166 342.164 94.9012 337.935 97.9296C332.592 101.757 343.278 118.667 343.278 118.667C343.581 121.772 337.574 128.231 334.354 131.452C334.354 131.195 334.354 131.049 334.354 131.049C334.323 131.172 334.276 131.29 334.214 131.399L333.946 131.254C333.874 131.511 333.744 131.748 333.566 131.948C333.566 131.51 333.537 131.254 333.537 131.254C332.919 133.873 322.128 137.194 322.128 137.194C322.128 137.194 321.837 137.194 321.335 137.194C318.337 137.194 310.533 136.517 306.916 130.728C305.046 127.593 302.653 124.8 299.841 122.472C298.878 121.717 297.708 121.273 296.487 121.2C286.496 120.558 278.406 115.499 276.79 114.419L276.492 114.215L276.428 114.402C276.049 113.859 275.682 113.282 275.337 112.686L275.162 112.366C277.581 111.151 279.616 109.29 281.042 106.989C282.468 104.688 283.229 102.037 283.241 99.33C283.241 99.2308 283.241 99.1258 283.241 99.0266C284.12 97.5067 284.583 95.7819 284.582 94.026V92.2754L286.863 90.2448C287.907 89.3171 288.986 88.3368 289.517 87.0589C289.73 86.5418 289.826 85.9837 289.797 85.4251C289.848 84.9465 289.776 84.4628 289.589 84.0197C289.401 83.5766 289.103 83.1887 288.724 82.8927C286.974 81.6848 284.058 82.8927 282.792 81.2122C282.209 80.4536 282.314 79.4208 282.028 78.5281C281.444 76.7134 279.345 75.7331 277.402 75.7039C275.46 75.6747 273.599 76.3808 271.733 76.9118C267.811 78.0255 263.719 78.4092 259.659 78.0438C258.561 77.8482 257.433 77.888 256.352 78.1605C255.691 78.4337 255.104 78.8586 254.638 79.401C254.172 79.9433 253.84 80.5877 253.669 81.2822C253.524 81.804 253.438 82.3402 253.412 82.881C251.785 84.7171 250.884 87.085 250.88 89.5388V94.026C250.884 96.4214 251.742 98.7369 253.301 100.555C253.485 102.667 254.127 104.713 255.181 106.551C256.236 108.389 257.678 109.975 259.408 111.198C259.408 111.315 259.408 111.434 259.408 111.554L259.484 111.601C259.39 112.992 259.175 114.373 258.842 115.726V115.429C258.842 115.429 250.676 119.776 241.927 119.881H240.965C239.239 119.823 237.561 120.452 236.298 121.632C233.709 124.071 229.171 127.928 226.383 127.928C225.799 127.928 211.077 130.804 208.639 131.283L204.084 126.819L203.944 127.081L203.676 126.819C203.177 126.857 202.682 126.93 202.194 127.035C199.861 124.269 195.195 117.839 194.116 109.209C194.116 109.209 204.189 97.7312 200.485 87.0356C197.324 77.9212 188.615 97.457 186.142 103.345C185.71 104.372 185.656 105.52 185.991 106.583L194.174 132.969C193.395 135.014 193.171 137.228 193.527 139.388H193.433L199.394 147.037C199.394 147.037 203.88 148.951 210.897 148.916C216.039 148.925 221.136 147.946 225.91 146.034H227.293L227.03 146.133H234.129L238.643 159.793C238.492 161.036 236.31 178.383 234.56 182.264C234.041 183.56 233.806 184.953 233.872 186.348C233.964 189.029 234.401 191.686 235.173 194.255L239.127 194.109L238.976 194.418C235.628 201.286 230.034 213.522 226.727 224.959L220.97 236.629L225.286 288.969H225.461L225.794 289.022C226.26 289.092 226.96 289.197 227.882 289.313L227.543 289.897L218.03 305.651C218.03 305.651 211.247 319.545 226.254 316.925C226.254 316.925 231.801 315.314 234.065 305.838L243.934 296.578C243.934 296.578 244.394 290.428 241.601 287.971C241.426 285.13 240.982 276.832 241.665 274.837C242.487 272.421 238.165 244.64 238.165 244.64C238.165 244.64 253.785 212.226 263.246 211.421C263.94 211.373 264.636 211.464 265.293 211.69C273.069 214.222 282.488 233.028 285.259 238.881L285.387 239.149V239.202L285.492 239.429V239.494L285.586 239.692V239.745L285.667 239.925V239.966L285.737 240.112V240.171L285.79 240.281V240.328L285.825 240.41V240.456V240.509L285.854 240.579L287.085 277.019L287.207 277.083H287.266L287.161 277.836L286.624 281.599C286.624 281.599 293.408 295.895 292.993 297.704C292.579 299.513 297.514 306.766 304.502 304.753C311.489 302.74 307.33 291.391 307.33 291.391L300.599 277.515L300.302 276.896C300.972 276.485 301.605 276.014 302.192 275.49C302.192 275.49 300.139 260.593 302.192 257.372C304.245 254.151 304.863 239.453 304.863 239.453C304.863 239.453 303.422 229.387 300.955 224.959L290.619 188.052C293.717 190.934 296.126 192.061 298.138 191.985H298.47C299.355 192.001 300.228 191.784 301.002 191.355C301.417 191.12 301.808 190.844 302.168 190.532C302.237 190.472 302.302 190.408 302.361 190.339C305.236 187.924 299.071 178.459 295.577 172.834C292.212 167.407 296.849 152.662 297.199 151.565C297.51 151.337 297.844 151.141 298.196 150.982C298.92 150.672 299.696 150.503 300.483 150.486C303.831 150.603 307.949 152.528 313.047 153.497C316.589 154.1 320.18 154.379 323.773 154.331H323.983C325.412 154.331 326.707 154.302 327.757 154.261C328.715 154.223 329.652 153.97 330.498 153.52C331.224 153.097 331.881 152.566 332.447 151.945L341.394 141.832L341.161 141.943C341.594 140.797 341.594 139.531 341.161 138.384L350.616 122.046C351.093 121.241 351.382 120.338 351.462 119.406C351.542 118.473 351.41 117.535 351.076 116.66Z" fill="url(#paint0_linear)"/>
<path d="M244.85 295.195L235.325 304.327C233.143 313.663 227.783 315.244 227.783 315.244C213.3 317.823 219.844 304.158 219.844 304.158L229.031 288.607L230.163 286.688C230.163 286.688 236.713 284.704 241.076 285.894C241.627 286.045 242.136 286.32 242.563 286.699C245.299 289.074 244.85 295.195 244.85 295.195Z" fill="#444176"/>
<path d="M303.58 303.335C296.832 305.319 292.072 298.177 292.498 296.385C292.924 294.594 286.333 280.526 286.333 280.526L286.846 276.815L287.324 273.378L298.406 274.171L299.45 276.365L305.948 290.049C305.948 290.049 310.329 301.351 303.58 303.335Z" fill="#444176"/>
<path opacity="0.1" d="M242.668 288.251C241.624 290.043 233.161 289.138 229.037 288.578L230.169 286.658C230.169 286.658 236.719 284.674 241.082 285.865C241.633 286.016 242.141 286.291 242.569 286.67C242.628 287.639 242.668 288.251 242.668 288.251Z" fill="black"/>
<path opacity="0.1" d="M299.462 276.354C293.787 280.135 287.744 277.276 286.834 276.803L287.312 273.366L298.395 274.16L299.462 276.354Z" fill="black"/>
<path d="M301.002 256.491C299.019 259.665 301.002 274.358 301.002 274.358C294.452 280.316 286.717 275.945 286.717 275.945L285.551 240.019C285.551 240.019 272.655 210.441 263.526 211.235C254.398 212.028 239.32 243.987 239.32 243.987C239.32 243.987 243.485 271.376 242.691 273.745C241.898 276.114 242.691 287.639 242.691 287.639C241.303 290.019 226.82 287.639 226.82 287.639L222.656 236.028L228.185 224.509C231.364 213.236 236.765 201.169 239.997 194.4C241.601 191.034 242.674 188.98 242.674 188.98L253.231 186.78L287.499 179.673L299.812 224.509C302.192 228.874 303.58 238.799 303.58 238.799C303.58 238.799 302.985 253.317 301.002 256.491Z" fill="#565387"/>
<g opacity="0.1">
<path opacity="0.1" d="M289.89 275.945L288.724 240.019C288.724 240.019 275.828 210.441 266.699 211.235C266.291 211.274 265.889 211.364 265.503 211.503C274.404 214.461 285.551 240.019 285.551 240.019L286.717 275.945C289.151 277.186 291.894 277.687 294.609 277.386C292.964 277.188 291.366 276.701 289.89 275.945Z" fill="black"/>
<path opacity="0.1" d="M229.97 287.656L225.805 236.045L231.358 224.509C234.537 213.236 239.938 201.169 243.17 194.4C244.774 191.034 245.847 188.98 245.847 188.98L256.404 186.78L287.686 180.274L287.516 179.649L253.231 186.78L242.674 188.98C242.674 188.98 241.601 191.034 239.997 194.4C236.754 201.169 231.364 213.259 228.185 224.509L222.632 236.022L226.797 287.633C226.797 287.633 234.706 288.934 239.396 288.648C236.239 288.477 233.093 288.146 229.97 287.656Z" fill="black"/>
</g>
<path d="M205.84 127.77C205.84 127.77 194.53 128.353 196.116 140.274L199.289 140.671L204.049 135.513L206.429 131.148V130.156L205.84 127.77Z" fill="#CED2DF"/>
<path opacity="0.1" d="M205.84 127.77C205.84 127.77 194.53 128.353 196.116 140.274L199.289 140.671L204.049 135.513L206.429 131.148V130.156L205.84 127.77Z" fill="black"/>
<path d="M331.66 132.135C331.66 132.135 340.992 137.094 338.606 142.854L335.632 144.021L331.665 141.838L331.082 136.68L331.479 133.109L331.66 132.135Z" fill="#CED2DF"/>
<path opacity="0.1" d="M331.66 132.135C331.66 132.135 340.992 137.094 338.606 142.854L335.632 144.021L331.665 141.838L331.082 136.68L331.479 133.109L331.66 132.135Z" fill="black"/>
<path d="M271.739 80.9204H263.8C257.007 80.9204 251.499 86.4301 251.499 93.2265C251.499 100.023 257.007 105.533 263.8 105.533H271.739C278.533 105.533 284.04 100.023 284.04 93.2265C284.04 86.4301 278.533 80.9204 271.739 80.9204Z" fill="#88455E"/>
<path d="M205.764 129.456L198.817 140.543L198.234 138.571L188.796 107.808C188.474 106.76 188.525 105.631 188.942 104.617C191.328 98.8165 199.739 79.5258 202.789 88.541C206.359 99.0441 196.636 110.376 196.636 110.376C197.744 119.572 202.906 126.235 204.936 128.546C205.449 129.147 205.764 129.456 205.764 129.456Z" fill="#EC8C9C"/>
<path d="M330.172 134.218C330.172 134.218 341.085 123.896 340.671 119.729C340.671 119.729 330.353 103.059 335.515 99.3067C339.598 96.3191 345.798 111.374 348.201 117.775C348.519 118.627 348.646 119.539 348.575 120.446C348.503 121.353 348.234 122.234 347.787 123.026L334.745 146.127L330.172 134.218Z" fill="#EC8C9C"/>
<path d="M259.531 105.439C259.531 105.439 261.514 118.142 255.763 122.909C250.011 127.677 272.234 127.647 272.234 127.647L280.173 120.301C280.173 120.301 271.045 111.764 273.821 105.416L259.531 105.439Z" fill="#EC8C9C"/>
<path opacity="0.1" d="M259.134 119.928C259.134 119.928 267.667 126.282 276.195 119.134L290.083 147.918L289.29 183.051C289.29 183.051 260.516 197.936 248.612 188.81C236.707 179.684 246.628 174.917 246.628 174.917L243.852 147.924L246.827 130.454C246.827 130.454 252.181 122.116 252.584 122.116C252.986 122.116 259.134 119.928 259.134 119.928Z" fill="black"/>
<path d="M259.134 119.531C259.134 119.531 267.667 125.897 276.201 118.737L290.089 147.522L289.295 182.654C289.295 182.654 260.522 197.54 248.617 188.414C236.713 179.288 246.634 174.52 246.634 174.52L243.858 147.527L246.833 130.057C246.833 130.057 252.187 121.719 252.59 121.719C252.992 121.719 259.134 119.531 259.134 119.531Z" fill="#FCCC4C"/>
<path opacity="0.1" d="M259.134 116.561C259.134 116.561 251.044 121.171 242.26 120.943C241.436 120.917 240.615 121.056 239.845 121.35C239.075 121.645 238.371 122.089 237.775 122.659C235.272 125.063 230.892 128.867 228.18 128.867C227.596 128.867 210.716 132.24 210.716 132.24L206.254 127.776C206.254 127.776 199.605 140.776 196.432 140.181L202.189 147.726C202.189 147.726 213.102 152.487 227.386 146.734H235.721L240.084 160.23C240.084 160.23 237.903 178.494 236.118 182.462C234.333 186.43 236.701 194.173 236.701 194.173L252.374 193.589C252.374 193.589 253.167 185.846 254.357 184.837C255.547 183.827 250.193 149.704 250.193 149.704C250.193 149.704 246.623 130.448 259.718 123.505L259.134 116.561Z" fill="black"/>
<path opacity="0.1" d="M253.225 186.803C252.648 189.158 252.237 191.55 251.995 193.963L239.997 194.418C241.601 191.051 242.674 188.997 242.674 188.997L253.225 186.803Z" fill="black"/>
<path opacity="0.1" d="M205.764 129.456L198.817 140.543L198.234 138.571C200.783 136.038 203.769 130.746 204.959 128.54C205.449 129.147 205.764 129.456 205.764 129.456Z" fill="black"/>
<path d="M259.134 116.561C259.134 116.561 250.641 121.171 241.863 120.943C241.039 120.917 240.218 121.056 239.448 121.35C238.678 121.645 237.974 122.089 237.378 122.659C234.875 125.063 230.495 128.867 227.783 128.867C227.199 128.867 210.319 132.24 210.319 132.24L205.84 127.77C205.84 127.77 199.19 140.771 196.017 140.175L201.774 147.72C201.774 147.72 212.687 152.481 226.972 146.728H235.307L239.67 160.219C239.67 160.219 237.488 178.482 235.704 182.45C233.919 186.418 236.287 194.161 236.287 194.161L251.96 193.578C251.96 193.578 252.753 185.835 253.943 184.825C255.133 183.816 249.778 149.692 249.778 149.692C249.778 149.692 246.208 130.437 259.303 123.493L259.134 116.561Z" fill="#CED2DF"/>
<path opacity="0.1" d="M276.201 115.359C276.201 115.359 284.297 121.532 295.105 122.244C296.288 122.318 297.418 122.757 298.342 123.499C301.068 125.812 303.378 128.575 305.172 131.668C309.535 138.816 320.25 138.022 320.25 138.022C320.25 138.022 330.668 134.749 331.263 132.187C331.263 132.187 331.56 146.191 338.11 142.807L329.495 152.738C328.952 153.365 328.287 153.875 327.539 154.235C326.792 154.596 325.979 154.799 325.15 154.833C321.913 154.961 316.29 155.002 311.542 154.08C304.397 152.691 299.24 149.319 295.473 152.295C295.473 152.295 290.515 167.775 293.886 173.336C297.257 178.897 303.218 188.221 300.436 190.608C297.654 192.994 294.283 192.79 288.73 187.037C283.177 181.283 282.576 171.556 282.576 171.556L283.964 146.547C283.964 146.547 278.61 127.688 273.465 123.919L276.201 115.359Z" fill="black"/>
<path opacity="0.1" d="M338.898 142.556L330.259 152.528C329.685 153.19 328.975 153.719 328.177 154.08C327.468 154.401 326.703 154.581 325.926 154.611C322.688 154.745 317.066 154.786 312.318 153.859C305.633 152.557 300.687 149.523 296.989 151.571C296.727 151.716 296.477 151.882 296.243 152.067C296.243 152.067 291.285 167.548 294.656 173.108C298.027 178.669 303.988 187.994 301.206 190.38C300.741 190.79 300.218 191.13 299.655 191.39C297.158 192.516 294.061 191.541 289.5 186.809C283.947 181.05 283.346 171.329 283.346 171.329L284.734 146.32C284.734 146.32 279.38 127.461 274.235 123.691L276.504 115.551C278.068 116.613 285.872 121.602 295.519 122.238C296.702 122.313 297.833 122.751 298.756 123.493C301.482 125.807 303.792 128.569 305.587 131.662C309.95 138.81 320.664 138.016 320.664 138.016C323.233 137.197 325.742 136.198 328.171 135.029C329.694 134.282 331.035 133.465 331.671 132.695C331.849 132.494 331.979 132.254 332.05 131.995C332.05 131.995 332.353 145.929 338.898 142.556Z" fill="black"/>
<path d="M338.501 142.754L329.869 152.738C329.394 153.286 328.825 153.745 328.189 154.092C327.374 154.535 326.468 154.784 325.541 154.821C322.304 154.956 316.681 154.996 311.933 154.069C305.488 152.814 300.652 149.943 297.007 151.583C296.59 151.764 296.198 151.998 295.84 152.277C295.84 152.277 290.882 167.758 294.254 173.318C297.625 178.879 303.586 188.204 300.804 190.59C300.444 190.9 300.053 191.172 299.637 191.401C297.071 192.819 293.898 191.985 289.086 187.019C283.533 181.26 282.932 171.539 282.932 171.539L284.32 146.53C284.32 146.53 278.966 127.671 273.821 123.901L276.201 115.365L276.487 115.563C278.05 116.625 285.854 121.614 295.502 122.25C296.684 122.324 297.815 122.763 298.739 123.505C301.465 125.818 303.775 128.581 305.569 131.674C309.932 138.822 320.647 138.028 320.647 138.028C323.216 137.208 325.724 136.21 328.154 135.041C329.956 134.119 331.426 133.109 331.654 132.187C331.654 132.187 331.654 132.368 331.654 132.689C331.829 135.099 332.703 145.736 338.501 142.754Z" fill="#CED2DF"/>
<path opacity="0.1" d="M273.996 105.737H259.414C259.735 108.056 259.827 110.402 259.688 112.739C261.914 114.306 264.525 115.237 267.24 115.432C269.954 115.628 272.671 115.08 275.098 113.848C273.699 111.257 272.847 108.316 273.996 105.737Z" fill="black"/>
<path d="M268.263 115.16C276.261 115.16 282.746 108.674 282.746 100.672C282.746 92.6703 276.261 86.1836 268.263 86.1836C260.264 86.1836 253.78 92.6703 253.78 100.672C253.78 108.674 260.264 115.16 268.263 115.16Z" fill="#EC8C9C"/>
<path opacity="0.1" d="M265.253 98.093C266.869 97.9004 268.484 97.3286 270.077 97.6495C271.523 97.9413 272.754 98.9391 274.2 99.2425C276.988 99.826 279.578 97.7721 281.684 95.8582L286.233 91.7153C287.243 90.7992 288.281 89.8364 288.8 88.576C289.319 87.3157 289.138 85.6585 288.03 84.8649C286.368 83.6979 283.504 84.8649 282.302 83.2078C281.76 82.4609 281.841 81.4573 281.561 80.5645C280.978 78.779 278.972 77.8045 277.093 77.7812C275.215 77.7578 273.419 78.4464 271.622 78.9482C267.838 80.0464 263.881 80.4245 259.957 80.0627C258.898 79.8687 257.809 79.9066 256.766 80.1736C256.124 80.4477 255.555 80.8688 255.106 81.4029C254.656 81.9369 254.337 82.5691 254.176 83.2486C253.278 86.4229 254.812 91.5402 256.352 94.3819C257.892 97.2236 262.179 98.4723 265.253 98.093Z" fill="black"/>
<path d="M265.253 97.6962C266.869 97.5036 268.484 96.9318 270.077 97.2527C271.523 97.5445 272.754 98.5423 274.2 98.8457C276.988 99.4292 279.578 97.3752 281.684 95.4613L286.233 91.3184C287.243 90.4023 288.281 89.4396 288.8 88.1792C289.319 86.9188 289.138 85.2617 288.03 84.4681C286.368 83.3011 283.504 84.4681 282.302 82.811C281.76 82.0641 281.841 81.0604 281.561 80.1677C280.978 78.3822 278.972 77.4077 277.093 77.3844C275.215 77.361 273.419 78.0496 271.622 78.5514C267.838 79.6496 263.881 80.0277 259.957 79.6659C258.898 79.4719 257.809 79.5097 256.766 79.7767C256.124 80.0509 255.555 80.472 255.106 81.006C254.656 81.5401 254.337 82.1723 254.176 82.8518C253.278 86.0261 254.812 91.1434 256.352 93.9851C257.892 96.8267 262.179 98.0463 265.253 97.6962Z" fill="#88455E"/>
<path opacity="0.1" d="M239.991 160.324C239.991 160.324 243.164 160.721 244.75 162.704C246.337 164.688 249.113 165.284 249.113 165.284" fill="black"/>
<path opacity="0.1" d="M211.416 134.119C211.416 134.119 214.005 139.901 212.407 140.485C210.809 141.068 211.416 145.246 211.416 145.246" fill="black"/>
<g opacity="0.1">
<path opacity="0.1" d="M212.308 132.135C212.308 132.135 229.171 128.762 229.754 128.762C232.472 128.762 236.847 124.958 239.349 122.554C240.11 121.824 241.046 121.304 242.067 121.042H241.851C241.027 121.016 240.207 121.155 239.436 121.449C238.666 121.744 237.963 122.189 237.366 122.758C234.864 125.162 230.483 128.966 227.771 128.966C227.299 128.966 216.508 131.108 212.127 131.977L212.308 132.135Z" fill="black"/>
<path opacity="0.1" d="M259.157 117.395V116.654C255.101 118.723 250.736 120.121 246.232 120.791C250.701 120.393 255.07 119.245 259.157 117.395Z" fill="black"/>
<path opacity="0.1" d="M238.305 194.062C238.305 194.062 235.925 186.319 237.722 182.351C239.518 178.383 241.688 160.12 241.688 160.12L237.337 146.623H228.978L228.471 146.821H235.324L239.67 160.324C239.67 160.324 237.488 178.588 235.703 182.555C233.919 186.523 236.287 194.266 236.287 194.266L251.959 193.683V193.56L238.305 194.062Z" fill="black"/>
</g>
<g opacity="0.1">
<path opacity="0.1" d="M301.002 187.416C300.642 187.726 300.251 187.998 299.836 188.227C297.269 189.645 294.096 188.81 289.284 183.845C284.874 179.276 283.591 172.175 283.247 169.485L283.13 171.539C283.13 171.539 283.714 181.266 289.284 187.019C294.096 192.002 297.269 192.819 299.836 191.401C300.251 191.172 300.642 190.9 301.002 190.59C301.836 189.872 301.883 188.525 301.445 186.844C301.337 187.062 301.186 187.256 301.002 187.416Z" fill="black"/>
<path opacity="0.1" d="M335.695 143.052L330.078 149.546C329.604 150.094 329.035 150.553 328.399 150.9C327.583 151.343 326.677 151.593 325.751 151.63C322.513 151.764 316.89 151.805 312.143 150.877C305.697 149.622 300.862 146.751 297.216 148.391C296.8 148.572 296.408 148.806 296.05 149.085C296.05 149.085 292.848 159.087 293.338 165.896C293.717 159.53 296.05 152.26 296.05 152.26C296.408 151.98 296.8 151.747 297.216 151.565C300.868 149.926 305.697 152.797 312.143 154.051C316.89 154.973 322.507 154.932 325.751 154.804C326.677 154.767 327.583 154.517 328.399 154.074C329.033 153.732 329.602 153.28 330.078 152.738L338.717 142.766C338.27 143.045 337.764 143.215 337.24 143.265C336.716 143.315 336.187 143.242 335.695 143.052Z" fill="black"/>
</g>
<path d="M82.0327 214.526C82.102 214.593 82.191 214.636 82.2865 214.648C82.3821 214.661 82.4792 214.642 82.5635 214.596C82.3841 214.599 82.2052 214.575 82.0327 214.526Z" fill="url(#paint1_linear)"/>
<path d="M141.475 117.868C140.425 117.564 138.926 117.069 137.124 116.438C138.997 114.028 140.367 111.266 141.154 108.316L141.003 108.374C141.055 108.193 141.108 108.018 141.154 107.832C137.695 109.238 133.869 106.857 131.431 103.8C128.993 100.742 127.348 96.9493 124.676 94.1368C123.563 93.0179 122.366 91.986 121.095 91.05C120.308 90.4665 119.462 89.8072 118.5 89.778C116.942 89.7313 115.723 91.2601 114.224 91.7094C113.238 91.9315 112.211 91.8933 111.244 91.5985C107.376 90.7116 103.661 89.072 99.7121 88.6402C97.5994 88.3791 95.455 88.621 93.4535 89.3462C91.4703 90.0989 90.5662 91.5985 88.9622 92.8006C87.2124 94.0901 83.7943 94.0609 81.7587 94.2885C79.2885 94.5707 76.8011 94.6741 74.316 94.5977C72.8879 94.4739 71.4499 94.5268 70.0348 94.7553C67.0775 95.403 64.7036 97.7545 62.4871 100.007C61.8821 100.516 61.4467 101.198 61.2389 101.962C61.2104 102.177 61.2104 102.394 61.2389 102.609C61.2165 103.198 61.3179 103.784 61.5364 104.331C62.2186 106.356 63.1827 108.275 64.4003 110.031C65.3043 111.327 66.3601 112.546 66.8734 114.081C67.1167 114.835 67.2445 115.622 67.2525 116.415C67.2273 117.257 67.1396 118.095 66.99 118.924C66.5986 121.215 65.9551 123.456 65.071 125.605C64.5222 126.709 64.1446 127.889 63.9511 129.106C63.9345 129.355 63.9345 129.604 63.9511 129.853C63.8053 133.704 67.69 136.476 68.4424 140.304C68.5042 140.621 68.5413 140.943 68.5532 141.266C68.4716 143.653 67.1125 145.987 65.106 146.915C65.281 146.985 65.4618 147.043 65.6426 147.101C65.4701 147.21 65.2908 147.307 65.106 147.393C65.4735 147.533 65.8468 147.656 66.2259 147.755C63.9456 149.742 62.029 152.111 60.5623 154.757C53.8137 167.326 8.10783 191.944 8.10783 191.944L8.78444 192.329L8.23616 192.685C4.28151 195.316 -4.99848 202.99 3.38909 212.693C3.38909 212.693 9.93933 202.354 14.5298 197.948C14.7339 197.75 14.938 197.569 15.113 197.4C15.2139 197.555 15.2815 197.73 15.3116 197.912C15.3417 198.095 15.3337 198.282 15.288 198.462L45.3386 181.569C45.3386 181.569 56.0185 174.089 58.9991 172.402C61.0969 171.095 63.3799 170.111 65.771 169.485L65.421 169.631C66.5446 169.321 67.703 169.157 68.8682 169.14C74.1877 169.222 79.9505 173.12 81.8462 188.554C84.3893 209.221 83.2111 212.95 82.3945 213.458C82.2938 213.45 82.1941 213.433 82.097 213.405C82.1222 213.427 82.1496 213.447 82.1786 213.463C82.068 213.456 81.9585 213.436 81.852 213.405C81.9108 213.459 81.9824 213.497 82.06 213.515C82.1376 213.534 82.2186 213.532 82.2953 213.51C82.3505 213.527 82.4086 213.532 82.4659 213.525C82.5231 213.518 82.5783 213.499 82.6278 213.469C82.7618 213.477 82.8962 213.477 83.0303 213.469C83.0303 213.66 83.0166 213.854 82.9894 214.053C82.9486 214.053 82.7503 214.164 82.9894 214.175C82.9253 215.342 82.9311 216.609 82.9894 217.933C80.3472 218.079 77.7049 218.237 75.4068 218.377L75.6109 217.285L75.7042 216.795C77.7341 216.632 79.6589 216.037 79.8864 214.391C80.3821 210.774 75.4184 208.842 71.1955 208.603C66.9725 208.364 41.6465 210.05 41.6465 210.05C41.6465 210.05 37.8493 214.969 49.8941 216.469C50.2518 216.655 50.6232 216.85 51.0081 217.052C55.7269 219.742 62.1255 224.696 65.1935 227.135L65.6193 227.473L64.2428 228.594C71.6913 230.28 78.8948 258.755 82.8669 271.773C86.8391 284.791 95.53 284.318 102.733 282.387C109.482 280.578 110.316 260.972 110.427 258.51V258.259L122.431 273.092L123.341 274.218C123.691 274.401 124.037 274.572 124.379 274.731C133.467 279.055 143.505 270.764 140.653 261.311C137.765 251.782 133.286 237.691 130.299 231.733C127.797 226.744 124.566 218.458 122.606 213.271C122.86 213.169 123.108 213.05 123.347 212.915C123.347 212.915 123.3 212.682 123.224 212.256L123.347 212.191C123.347 212.191 120.43 197.184 120.302 186.517C120.302 186.331 120.302 186.136 120.302 185.934C120.302 185.817 120.302 185.7 120.302 185.589C122.472 185.093 123.848 184.901 123.848 184.901L123.889 184.434L123.638 184.487L124.846 170.663C124.846 170.663 129.279 161.228 125.884 157.301C124.852 156.153 124.163 154.738 123.895 153.217C123.312 149.605 123.895 143.577 131.798 138.571C143.966 130.851 148.713 124.567 148.713 124.567C148.713 124.567 148.923 120.062 141.475 117.868ZM117.31 127.461V121.071C119.567 120.96 121.871 121.223 124.14 121.071C125.254 120.994 126.357 120.808 127.435 120.517L127.984 120.896C124.664 123.451 121.087 125.651 117.31 127.461ZM82.8086 227.613C83.701 228.232 84.5993 228.874 85.48 229.522C86.0283 232.672 86.5124 234.896 86.5474 235.053C85.5408 232.46 84.2889 229.969 82.8086 227.613Z" fill="url(#paint2_linear)"/>
<path d="M102.092 222.362L101.567 225.215L101.164 227.398L100.429 231.389L93.3016 236.378C93.3016 236.378 92.66 235.829 91.5985 234.96C88.6821 232.556 82.5401 227.678 78.0314 225.04C76.8727 224.3 75.6188 223.721 74.3042 223.319L102.092 222.362Z" fill="#FFBDC6"/>
<path opacity="0.1" d="M102.092 222.362L101.567 225.215C99.9956 225.303 98.4196 225.222 96.8655 224.976L80.2361 225.215C79.4487 225.169 78.7138 225.104 78.0255 225.034C76.8668 224.294 75.613 223.715 74.2983 223.313L102.092 222.362Z" fill="black"/>
<path d="M96.8653 224.509C96.8653 224.509 105.183 225.933 105.655 222.368C106.128 218.803 101.38 216.924 97.3494 216.655C93.3189 216.387 69.072 218.091 69.072 218.091C69.072 218.091 64.7965 223.792 80.236 224.743L96.8653 224.509Z" fill="#7679B4"/>
<path opacity="0.1" d="M102.092 222.362L101.567 225.215L101.164 227.398L100.429 231.389L93.3016 236.378C93.3016 236.378 92.66 235.829 91.5985 234.96C88.6821 232.556 82.5401 227.678 78.0314 225.04C76.8727 224.3 75.6188 223.721 74.3042 223.319L102.092 222.362Z" fill="black"/>
<path opacity="0.1" d="M102.092 222.362L101.567 225.215C99.9956 225.303 98.4196 225.222 96.8655 224.976L80.2361 225.215C79.4487 225.169 78.7138 225.104 78.0255 225.034C76.8668 224.294 75.613 223.715 74.2983 223.313L102.092 222.362Z" fill="black"/>
<path opacity="0.1" d="M96.8653 224.509C96.8653 224.509 105.183 225.933 105.655 222.368C106.128 218.803 101.38 216.924 97.3494 216.655C93.3189 216.387 69.072 218.091 69.072 218.091C69.072 218.091 64.7965 223.792 80.236 224.743L96.8653 224.509Z" fill="black"/>
<path d="M115.034 107.336H71.5625V158.906H115.034V107.336Z" fill="#A66477"/>
<path opacity="0.1" d="M115.034 107.336H71.5625V158.906H115.034V107.336Z" fill="black"/>
<path d="M20.6073 195.626C19.8898 195.807 18.9799 196.495 17.9592 197.499C13.5671 201.84 7.30264 212.022 7.30264 212.022C-0.723298 202.465 8.16007 194.908 11.9689 192.312C12.8905 191.681 13.5087 191.343 13.5087 191.343L20.6073 195.626Z" fill="#FFBDC6"/>
<path d="M101.619 123.615C101.619 123.615 103.76 138.588 111.121 142.153C118.482 145.719 101.619 152.371 101.619 152.371L78.5737 143.816C78.5737 143.816 91.6392 139.539 89.0261 126.941L101.619 123.615Z" fill="#FFBDC6"/>
<path d="M76.935 213.685L76.41 216.539L76.0075 218.721L75.2726 222.712L68.1449 227.701C68.1449 227.701 67.5033 227.153 66.4417 226.283C63.5253 223.879 57.3834 219.001 52.8746 216.364C51.716 215.623 50.4621 215.044 49.1475 214.642L76.935 213.685Z" fill="#FFBDC6"/>
<path opacity="0.1" d="M76.9349 213.685L76.41 216.539C74.8389 216.626 73.2629 216.546 71.7087 216.299L55.0794 216.539C54.292 216.492 53.557 216.428 52.8688 216.358C51.7101 215.618 50.4562 215.039 49.1416 214.636L76.9349 213.685Z" fill="black"/>
<path d="M71.6851 215.827C71.6851 215.827 80.0027 217.25 80.4751 213.685C80.9476 210.12 76.1997 208.218 72.1576 207.984C68.1154 207.751 43.8859 209.408 43.8859 209.408C43.8859 209.408 39.6105 215.109 55.0499 216.06L71.6851 215.827Z" fill="#7679B4"/>
<path opacity="0.1" d="M75.9838 218.727L75.2488 222.718L68.1211 227.707C68.1211 227.707 67.4795 227.158 66.418 226.289L75.8438 218.557L75.9838 218.727Z" fill="black"/>
<path d="M123.014 273.133C122.687 272.973 122.357 272.804 122.022 272.625L121.153 271.516L109.674 256.929V257.186C109.598 259.607 108.77 278.921 102.319 280.701C95.4305 282.603 87.113 283.076 83.3158 270.244C79.5187 257.413 72.6243 229.37 65.4966 227.707L76.0656 219.03C76.0656 219.03 83.065 227.199 85.9231 235.065C85.8181 234.563 80.9827 211.976 84.9723 207.984H119.654C119.654 207.984 124.997 223.237 128.683 230.799C131.541 236.669 135.829 250.545 138.599 259.934C141.341 269.223 131.763 277.392 123.014 273.133Z" fill="#7679B4"/>
<path opacity="0.1" d="M122.046 212.256C116.697 215.424 93.1792 214.135 85.5149 213.621L83.4326 213.469C83.2051 213.469 83.4676 213.341 83.4676 213.341L83.6834 211.182L89.3821 196.688L119.911 178.996C119.293 180.857 119.083 183.711 119.135 186.984C119.287 197.476 122.046 212.256 122.046 212.256Z" fill="black"/>
<path d="M122.046 211.55C116.697 214.718 93.1791 213.429 85.5148 212.915L83.4325 212.763H83.0884L83.4675 212.664L85.3457 212.168L89.382 196.005L119.911 178.302C119.293 180.163 119.083 183.016 119.135 186.29C119.287 196.764 122.046 211.55 122.046 211.55Z" fill="#F2F1F2"/>
<path opacity="0.1" d="M119.135 186.266C112.929 187.696 99.2687 191.903 94.0192 202.021C90.5195 208.778 87.6031 211.678 85.5208 212.892L83.4385 212.74L83.4735 212.612L85.3516 212.116L89.3879 195.953L119.917 178.249C119.287 180.163 119.083 182.993 119.135 186.266Z" fill="black"/>
<path opacity="0.1" d="M13.4798 191.349L20.6075 195.626C19.89 195.807 18.9801 196.495 17.9594 197.499C17.3761 195.748 13.6315 193.344 11.9399 192.317C12.8615 191.687 13.4798 191.349 13.4798 191.349Z" fill="black"/>
<path opacity="0.1" d="M82.1842 213.038C82.1047 213.082 82.0131 213.1 81.9229 213.088C81.8326 213.076 81.7484 213.036 81.6826 212.973C81.8457 213.019 82.0148 213.041 82.1842 213.038Z" fill="black"/>
<path d="M98.2887 141.202C98.2887 141.202 91.8726 141.914 87.358 137.164C87.358 137.164 68.3547 142.632 61.9387 154.99C55.5226 167.349 11.8115 191.588 11.8115 191.588C11.8115 191.588 19.3942 195.865 18.7001 198.006L47.4441 181.371C47.4441 181.371 57.6574 174.001 60.5096 172.338C63.3619 170.675 79.0405 160.458 82.3652 188.262C85.6898 216.066 82.3652 212.769 82.3652 212.769C82.3652 212.769 87.1189 214.432 94.0308 201.099C100.943 187.766 122.302 184.703 122.302 184.703L123.469 170.698C123.469 170.698 127.709 161.409 124.461 157.535C123.47 156.395 122.812 155.004 122.559 153.514C122.017 149.955 122.559 144.021 130.142 139.09C141.807 131.504 146.299 125.308 146.299 125.308C146.299 125.308 146.538 120.791 139.41 118.656C132.282 116.52 103.299 104.873 103.299 104.873L102.348 108.911L125.155 125.074C125.155 125.074 113.751 134.34 104.74 134.107C104.705 134.066 106.367 140.963 98.2887 141.202Z" fill="#565388"/>
<path opacity="0.1" d="M102.692 130.133C102.131 128.218 101.692 126.269 101.38 124.298L88.7868 127.647C89.3381 130.051 89.2394 132.559 88.501 134.912C91.0746 135.599 93.7936 135.511 96.3178 134.66C98.8419 133.809 101.059 132.233 102.692 130.127V130.133Z" fill="black"/>
<path d="M92.2342 134.667C99.7142 134.667 105.778 128.601 105.778 121.118C105.778 113.635 99.7142 107.569 92.2342 107.569C84.7542 107.569 78.6904 113.635 78.6904 121.118C78.6904 128.601 84.7542 134.667 92.2342 134.667Z" fill="#FFBDC6"/>
<path opacity="0.1" d="M99.4318 90.3032C103.188 90.7292 106.764 92.3455 110.462 93.2207C111.386 93.5106 112.37 93.5489 113.314 93.3316C114.749 92.8881 115.915 91.3827 117.397 91.4294C118.313 91.4294 119.147 92.0829 119.882 92.6839C121.099 93.6079 122.244 94.6243 123.305 95.724C125.854 98.4956 127.441 102.23 129.768 105.241C132.096 108.252 135.764 110.597 139.072 109.215C136.826 117.967 129.453 124.66 121.486 125.203C118.307 125.419 115.07 124.759 111.972 125.693C111.205 126.006 110.395 126.202 109.569 126.276C107.819 126.276 106.373 124.648 105.265 123.067C102.675 119.344 100.598 115.12 97.682 111.729C96.7195 110.609 95.5821 109.541 94.2231 109.337C92.8641 109.133 91.61 109.781 90.3968 110.411C88.3961 111.449 86.3488 112.523 84.7973 114.297C83.2458 116.071 82.2658 118.726 82.9074 121.13C83.2516 122.425 84.0448 123.592 84.074 124.952C84.074 127.111 82.1958 128.692 81.8167 130.787C81.7332 131.671 81.702 132.56 81.7234 133.448C81.5542 136.33 79.6761 138.699 77.7046 140.502C76.9405 141.208 76.0889 141.961 75.8673 143.052C75.7156 143.793 75.8673 144.581 75.7681 145.334C75.4823 147.207 73.6158 148.152 71.9651 148.397C70.0372 148.68 68.0689 148.446 66.2606 147.72C68.5937 146.629 69.9878 143.519 69.4512 140.718C68.7162 136.861 64.8433 134.095 65.1699 130.162C65.3526 128.958 65.7143 127.788 66.2431 126.691C67.0883 124.569 67.7024 122.362 68.0746 120.109C68.4562 118.374 68.4182 116.574 67.9638 114.857C67.468 113.346 66.4589 112.144 65.5957 110.866C64.4266 109.129 63.504 107.238 62.8543 105.247C62.6188 104.658 62.5288 104.022 62.5918 103.391C62.7799 102.647 63.1862 101.977 63.7584 101.466C65.8815 99.2425 68.1563 96.926 70.9794 96.2841C72.3282 96.0593 73.7001 96.0064 75.0623 96.1266C77.4405 96.2023 79.821 96.1008 82.1842 95.8231C84.1323 95.5956 87.4337 95.6248 89.0786 94.3527C90.6126 93.1857 91.4817 91.6978 93.3773 90.9509C95.312 90.2423 97.3911 90.0199 99.4318 90.3032Z" fill="black"/>
<path opacity="0.1" d="M106.962 230.204C106.962 230.204 114.801 245.65 112.427 250.405L106.962 230.204Z" fill="black"/>
<path opacity="0.1" d="M121.177 271.516L109.698 256.929V257.186C109.698 257.186 109.033 252.471 111.22 254.058C116.009 257.524 123.673 263.207 123.836 264.188C124 265.168 122.285 269.101 121.177 271.516Z" fill="black"/>
<g opacity="0.1">
<path opacity="0.1" d="M104.933 134.066C104.933 134.066 105.901 138.08 102.769 140.088C107.592 139.259 107.802 135.507 107.656 133.873C106.756 134.019 105.844 134.084 104.933 134.066Z" fill="black"/>
<path opacity="0.1" d="M14.6697 190.637C14.6697 190.637 58.3808 166.398 64.7969 154.039C69.3989 145.17 80.4871 139.854 86.3783 137.555C82.0795 138.997 67.6141 144.522 62.1779 154.99C55.7618 167.349 12.0508 191.588 12.0508 191.588L14.6697 190.637Z" fill="black"/>
<path opacity="0.1" d="M113.437 132.181C120.874 129.847 127.984 124.088 127.984 124.088L105.178 107.925L105.697 105.708L103.515 104.832L102.564 108.87L125.371 125.033C121.711 127.911 117.701 130.313 113.437 132.181Z" fill="black"/>
<path opacity="0.1" d="M113.583 186.949C116.497 185.954 119.487 185.199 122.524 184.691L122.565 184.23C119.505 184.902 116.502 185.811 113.583 186.949Z" fill="black"/>
<path opacity="0.1" d="M85.941 211.847H85.731C85.6515 211.891 85.5599 211.909 85.4696 211.898C85.3794 211.886 85.2952 211.846 85.2294 211.783C85.3926 211.828 85.5616 211.85 85.731 211.847C86.5126 211.392 87.685 207.844 85.2294 187.305C82.6046 165.377 72.3039 167.098 66.6636 169.619C72.4264 168.032 80.359 169.403 82.6163 188.256C85.0719 208.795 83.8995 212.349 83.1179 212.798C84.131 212.761 85.1115 212.43 85.941 211.847Z" fill="black"/>
<path opacity="0.1" d="M83.1178 212.804C82.9484 212.807 82.7794 212.785 82.6162 212.74C82.682 212.803 82.7662 212.843 82.8565 212.854C82.9467 212.866 83.0383 212.848 83.1178 212.804Z" fill="black"/>
</g>
<path d="M99.4318 89.8422C103.188 90.2682 106.764 91.8845 110.462 92.7597C111.386 93.0496 112.37 93.0879 113.314 92.8706C114.749 92.4272 115.915 90.9217 117.397 90.9684C118.313 90.9684 119.147 91.6219 119.882 92.2229C121.099 93.147 122.244 94.1633 123.305 95.263C125.854 98.0346 127.441 101.769 129.768 104.78C132.096 107.791 135.764 110.137 139.072 108.754C136.826 117.506 129.453 124.199 121.486 124.742C118.307 124.958 115.07 124.298 111.972 125.232C111.205 125.545 110.395 125.741 109.569 125.815C107.819 125.815 106.373 124.187 105.265 122.606C102.675 118.883 100.598 114.659 97.682 111.269C96.7195 110.148 95.5821 109.08 94.2231 108.876C92.8641 108.672 91.61 109.32 90.3968 109.95C88.3961 110.988 86.3488 112.062 84.7973 113.836C83.2458 115.61 82.2658 118.265 82.9074 120.669C83.2516 121.964 84.0448 123.131 84.074 124.491C84.074 126.65 82.1958 128.231 81.8167 130.326C81.7332 131.21 81.702 132.099 81.7234 132.987C81.5542 135.869 79.6761 138.238 77.7046 140.041C76.9405 140.747 76.0889 141.5 75.8673 142.591C75.7156 143.332 75.8673 144.12 75.7681 144.873C75.4823 146.746 73.6158 147.691 71.9651 147.936C70.0372 148.219 68.0689 147.985 66.2606 147.259C68.5937 146.168 69.9878 143.058 69.4512 140.257C68.7162 136.4 64.8433 133.634 65.1699 129.701C65.3526 128.497 65.7143 127.327 66.2431 126.23C67.0883 124.108 67.7024 121.901 68.0746 119.648C68.4562 117.913 68.4182 116.113 67.9638 114.396C67.468 112.885 66.4589 111.683 65.5957 110.405C64.4266 108.668 63.504 106.777 62.8543 104.786C62.6188 104.197 62.5288 103.561 62.5918 102.93C62.7799 102.186 63.1862 101.516 63.7584 101.005C65.8815 98.7815 68.1563 96.465 70.9794 95.8231C72.3282 95.5984 73.7001 95.5454 75.0623 95.6656C77.4405 95.7413 79.821 95.6399 82.1842 95.3622C84.1323 95.1346 87.4337 95.1638 89.0786 93.8917C90.6126 92.7247 91.4817 91.2368 93.3773 90.4899C95.312 89.7814 97.3911 89.5589 99.4318 89.8422Z" fill="#A66477"/>
<path d="M486.164 59.4299C486.164 59.3541 486.164 59.2841 486.164 59.2141C486.164 59.144 486.164 59.0623 486.129 58.9923H486.036C486.036 58.8348 486.036 58.6772 486.036 58.508C485.803 53.0989 478.325 41.5864 475.327 44.9474C472.702 47.8999 476.663 55.3688 478.681 58.7297L478.862 59.0332L478.763 58.969C478.763 58.969 470.416 83.873 469.43 84.8416C468.444 85.8102 461.573 105.393 452.515 107.598C450.724 108.024 449.237 108.409 447.989 108.765L448.088 108.433C448.671 106.525 449.389 104.722 449.68 102.598C449.972 100.474 449.68 97.9004 448.607 96.8676C448.082 96.3541 447.44 96.2841 447.009 95.4672C446.729 94.7507 446.579 93.99 446.566 93.2207L445.796 83.7796L446.332 83.6162C449.575 82.5776 452.719 80.1152 453.087 76.8009C452.974 76.8437 452.859 76.8808 452.742 76.9118C452.785 76.719 452.818 76.5243 452.842 76.3282C450.118 77.4019 447.592 74.5777 444.967 73.3115C440.645 71.1934 435.705 73.189 431.243 73.6733C426.186 74.2276 421.385 72.127 416.217 72.5063C413.406 72.7222 410.28 74.6302 410.431 77.4019C410.519 78.9248 411.598 80.2144 412.041 81.6731C413.161 85.2033 410.67 88.7452 408.489 91.7561C407.054 93.7342 405.678 96.1441 405.433 98.4664C400.411 93.2149 394.98 87.1464 394.35 84.8649L379.821 59.9609C379.821 59.9609 379.477 60.3285 378.922 60.8712C378.835 60.6028 378.73 60.2877 378.613 59.9726C376.759 54.7736 371.509 42.1757 364.854 44.4864C358.199 46.7971 367.613 59.71 371.707 64.8565L372.291 65.5684C371.947 65.6528 371.587 65.6366 371.252 65.5217L387.456 93.3257C387.456 93.3257 390.401 98.6473 393.102 100.094C393.102 100.094 413.231 125.483 413.476 130.559C413.721 135.636 422.529 149.179 422.529 149.179C422.529 149.179 425.474 171.183 420.318 175.051H420.382H420.423H420.487H420.545H420.662H420.738H420.814H420.913H420.995H421.111H421.17C420.925 175.291 420.674 175.553 420.417 175.839C416.597 180.075 411.715 189.155 418.387 204.594C428.204 227.351 429.68 236.267 429.68 236.267C429.68 236.267 411.015 237.235 407.34 237.959C404.085 238.601 391.434 239.05 388.541 239.126C387.508 237.924 384.458 235.263 380.34 239.126C375.184 243.963 371.503 260.132 371.503 260.132C371.503 260.132 369.538 273.191 376.169 269.801C376.169 269.801 384.026 258.919 386.231 258.434C387.328 258.195 388.488 256.579 389.375 255.021L389.422 255.05C389.474 255.05 389.69 254.933 390.04 254.793C391.673 254.145 396.17 252.587 399.716 253.364C401.659 253.79 409.988 253.889 418.72 253.865C416.748 258.592 413.214 270.787 413.214 270.787C413.214 270.787 411.738 282.16 416.637 281.693C420.137 281.348 425.503 272.403 428.303 267.298C430.333 265.81 436.148 260.476 440.447 260.879L469.413 249.758C469.413 249.758 476.284 245.889 472.603 233.075C469.687 222.887 461.387 202.033 458.109 193.904L458.01 193.694C457.216 191.728 456.738 190.561 456.738 190.561C455.391 186.85 454.508 182.987 454.107 179.06C454.078 178.751 454.055 178.436 454.032 178.126C454.437 177.956 454.82 177.735 455.169 177.467C455.169 177.467 452.468 150.147 455.169 147.242L455.216 147.189V147.154L455.262 147.096L455.367 146.961L455.496 146.798C455.641 146.606 455.816 146.366 456.015 146.075C457.56 143.811 460.442 138.641 459.614 132.537C459.579 132.273 459.536 132.006 459.485 131.738C459.168 130.083 458.602 128.485 457.805 127C457.689 126.381 457.617 125.755 457.59 125.127C457.59 124.771 457.59 124.38 457.59 123.96V123.89C457.59 123.777 457.59 123.664 457.59 123.551V123.47C457.59 123.195 457.636 122.886 457.677 122.629V122.524C457.677 122.419 457.695 122.312 457.73 122.203V122.069C457.73 121.964 457.776 121.859 457.8 121.754V121.643C457.835 121.503 457.87 121.363 457.916 121.223V121.153C457.951 121.036 457.99 120.922 458.033 120.809L458.085 120.675L458.202 120.395L458.26 120.254C458.307 120.149 458.36 120.044 458.412 119.939L458.453 119.852C458.523 119.723 458.597 119.597 458.674 119.473L458.739 119.373L458.931 119.099L459.024 118.977L459.229 118.732L459.322 118.626C459.427 118.516 459.532 118.405 459.649 118.3C462.839 115.382 477.077 93.8801 477.077 93.8801C477.077 93.8801 480.512 89.0428 480.512 85.9035C480.705 85.8335 486.777 65.5859 486.164 59.4299ZM447.942 240.171C447.592 236.856 447.242 232.748 446.921 228.5L452.474 237.16C452.474 237.16 451.949 239.797 447.942 240.171Z" fill="url(#paint3_linear)"/>
<path d="M390.046 238.338C390.046 238.338 386.721 233.087 381.728 237.866C376.735 242.645 373.177 258.539 373.177 258.539C373.177 258.539 371.276 271.376 377.692 268.045C377.692 268.045 385.275 257.349 387.433 256.876C389.591 256.404 391.947 250.458 391.947 250.458L390.046 238.338Z" fill="#493545"/>
<path d="M425.678 251.17C425.678 251.17 421.164 249.028 419.741 250.697C418.317 252.366 413.564 268.996 413.564 268.996C413.564 268.996 412.141 279.93 416.888 279.452C421.636 278.974 429.954 261.854 429.954 261.854L425.678 251.17Z" fill="#493545"/>
<path opacity="0.05" d="M425.678 251.17C425.678 251.17 421.164 249.028 419.741 250.697C418.317 252.366 413.564 268.996 413.564 268.996C413.564 268.996 412.141 279.93 416.888 279.452C421.636 278.974 429.954 261.854 429.954 261.854L425.678 251.17Z" fill="black"/>
<path d="M441.357 218.849L451.57 234.773C451.57 234.773 450.859 238.338 444.682 237.626L423.538 250.936C423.538 250.936 421.7 267.14 427.574 265.67C428.525 265.43 435.157 258.539 439.928 259.018L467.966 248.083C467.966 248.083 474.616 244.278 471.052 231.686C467.488 219.094 455.706 189.896 455.706 189.896L437.082 200.317L441.357 218.849Z" fill="#3E3D77"/>
<path opacity="0.05" d="M441.357 218.849L451.57 234.773C451.57 234.773 450.859 238.338 444.682 237.626L423.538 250.936C423.538 250.936 421.7 267.14 427.574 265.67C428.525 265.43 435.157 258.539 439.928 259.018L467.966 248.083C467.966 248.083 474.616 244.278 471.052 231.686C467.488 219.094 455.706 189.896 455.706 189.896L437.082 200.317L441.357 218.849Z" fill="black"/>
<path d="M447.773 242.376C449.196 251.409 441.124 252.121 441.124 252.121C441.124 252.121 404.774 252.833 400.498 251.881C396.223 250.93 390.518 253.544 390.518 253.544C383.151 249.028 389.095 237.86 389.095 237.86C389.095 237.86 404.301 237.387 407.865 236.693C411.429 235.998 429.481 235.012 429.481 235.012C429.481 235.012 428.058 226.219 418.551 203.882C412.094 188.711 416.801 179.784 420.516 175.623C421.465 174.519 422.562 173.553 423.777 172.752L452.999 174.176C452.968 175.65 453.022 177.125 453.163 178.593C453.662 183.633 454.972 188.559 457.041 193.181C455.379 193.181 444.688 203.165 444.688 203.165C444.688 203.165 446.344 233.349 447.773 242.376Z" fill="#3E3D77"/>
<path opacity="0.1" d="M391.23 238.811C391.23 238.811 406.436 238.338 410 237.644C413.564 236.95 431.616 235.981 431.616 235.981C431.616 235.981 430.193 227.188 420.686 204.851C414.229 189.68 418.936 180.752 422.651 176.592C423.599 175.488 424.697 174.522 425.912 173.721L452.988 175.04C452.988 174.76 452.988 174.456 452.988 174.194L423.765 172.77C422.55 173.571 421.453 174.537 420.505 175.641C416.807 179.807 412.082 188.729 418.539 203.9C428.07 226.219 429.481 235.012 429.481 235.012C429.481 235.012 411.4 235.963 407.865 236.675C404.33 237.387 389.095 237.842 389.095 237.842C389.095 237.842 383.157 249.017 390.518 253.55C390.518 253.55 390.74 253.445 391.101 253.294C386.208 248.258 391.23 238.811 391.23 238.811Z" fill="black"/>
<path d="M434.702 85.5244H419.974V122.834H434.702V85.5244Z" fill="#493545"/>
<path opacity="0.1" d="M434.702 85.5244H419.974V122.834H434.702V85.5244Z" fill="black"/>
<path d="M443.124 80.051C443.632 80.1911 444.203 80.2086 444.548 80.9088C444.761 81.4684 444.878 82.0604 444.892 82.6593L445.819 94.1894C445.832 94.9442 445.978 95.6909 446.251 96.395C446.642 97.1769 447.289 97.2702 447.796 97.7721C448.817 98.7874 449.115 101.331 448.835 103.403C448.555 105.474 447.849 107.248 447.295 109.121C446.502 111.805 445.977 114.822 444.863 117.086C443.748 119.35 441.724 120.587 440.418 118.685C439.111 116.783 439.286 112.943 439.041 109.798C438.633 104.547 436.586 100.019 436.446 94.732C436.329 90.4549 437.478 86.4637 438.196 82.4084C438.709 79.6251 438.738 76.2466 439.485 73.7433C440.109 76.7192 441.299 79.5492 443.124 80.051Z" fill="#493545"/>
<path opacity="0.1" d="M443.124 80.051C443.632 80.1911 444.203 80.2086 444.548 80.9088C444.761 81.4684 444.878 82.0604 444.892 82.6593L445.819 94.1894C445.832 94.9442 445.978 95.6909 446.251 96.395C446.642 97.1769 447.289 97.2702 447.796 97.7721C448.817 98.7874 449.115 101.331 448.835 103.403C448.555 105.474 447.849 107.248 447.295 109.121C446.502 111.805 445.977 114.822 444.863 117.086C443.748 119.35 441.724 120.587 440.418 118.685C439.111 116.783 439.286 112.943 439.041 109.798C438.633 104.547 436.586 100.019 436.446 94.732C436.329 90.4549 437.478 86.4637 438.196 82.4084C438.709 79.6251 438.738 76.2466 439.485 73.7433C440.109 76.7192 441.299 79.5492 443.124 80.051Z" fill="black"/>
<path d="M380.777 63.6603L375.078 68.4159C375.078 68.4159 374.402 67.6223 373.393 66.3386C369.432 61.2796 360.327 48.5884 366.761 46.3186C373.194 44.0488 378.281 56.4249 380.077 61.5364C380.532 62.8318 380.777 63.6603 380.777 63.6603Z" fill="#C77485"/>
<path d="M483.645 61.9973C481.271 65.5626 477.946 61.9973 477.946 61.9973C477.946 61.9973 477.52 61.3613 476.92 60.3344C474.966 57.0259 471.133 49.6912 473.671 46.7854C476.587 43.4652 483.814 54.7969 484.036 60.1126C484.104 60.7662 483.968 61.425 483.645 61.9973Z" fill="#C77485"/>
<path d="M425.2 100.497C425.2 100.497 429.954 115.709 428.525 120.219C427.096 124.73 438.744 129.981 438.744 129.981H452.049C452.049 129.981 456.802 120.237 455.612 117.384C454.423 114.53 444.209 112.395 444.209 112.395C444.209 112.395 438.272 112.395 438.511 96.4708L425.2 100.497Z" fill="#C77485"/>
<path opacity="0.1" d="M380.777 63.6604L375.079 68.4159C375.079 68.4159 374.402 67.6224 373.393 66.3386C375.464 65.971 378.678 62.9485 380.083 61.5364C380.532 62.8318 380.777 63.6604 380.777 63.6604Z" fill="black"/>
<path opacity="0.1" d="M483.645 61.9973C481.271 65.5625 477.946 61.9973 477.946 61.9973C477.946 61.9973 477.52 61.3613 476.919 60.3344L476.995 60.0951C478.535 61.1979 483.324 60.2585 484.036 60.0951C484.108 60.7545 483.971 61.42 483.645 61.9973Z" fill="black"/>
<path opacity="0.1" d="M453.151 178.587C445.802 181.943 421.922 175.968 420.487 175.612C421.435 174.508 422.533 173.541 423.748 172.741L452.97 174.164C452.944 175.641 453.005 177.118 453.151 178.587Z" fill="black"/>
<path d="M428.291 113.568C428.291 113.568 422.593 115.47 414.514 108.1C414.514 108.1 396.433 90.274 395.266 85.9969L381.267 61.4897C381.267 61.4897 375.329 67.9083 372.95 66.9572L388.628 94.2885C388.628 94.2885 391.481 99.5401 394.094 100.941C394.094 100.941 413.575 125.897 413.809 130.886C414.042 135.875 422.587 149.237 422.587 149.237C422.587 149.237 425.439 170.862 420.446 174.666C420.446 174.666 448.24 181.797 454.177 177.041C454.177 177.041 451.564 150.2 454.177 147.335C454.177 147.335 462.256 137.83 456.79 127.373C456.79 127.373 455.624 121.672 458.692 118.819C461.76 115.966 475.56 94.8137 475.56 94.8137C475.56 94.8137 478.885 90.0581 478.885 86.9714C478.885 86.9714 485.062 66.0586 484.135 60.5912C484.135 60.5912 478.669 61.7582 477.007 60.5912C477.007 60.5912 468.929 85.0984 467.978 86.0203C467.027 86.9422 460.395 106.221 451.588 108.363C442.78 110.504 441.374 111.449 441.374 111.449C441.374 111.449 458.476 122.145 450.164 126.895C441.853 131.645 428.291 113.568 428.291 113.568Z" fill="#FFAAC4"/>
<path opacity="0.1" d="M439.088 104.156C438.806 101.917 438.691 99.6602 438.744 97.4044L425.439 101.442C425.789 102.329 426.068 103.242 426.273 104.173C427.795 104.844 429.849 106.431 431.616 106.431C434.289 106.519 436.917 105.718 439.088 104.156Z" fill="black"/>
<path d="M431.377 105.725C438.2 105.725 443.731 100.192 443.731 93.3666C443.731 86.5411 438.2 81.0079 431.377 81.0079C424.554 81.0079 419.023 86.5411 419.023 93.3666C419.023 100.192 424.554 105.725 431.377 105.725Z" fill="#C77485"/>
<path opacity="0.1" d="M416.678 74.3268C413.96 74.5369 410.927 76.4158 411.079 79.1408C411.16 80.6404 412.187 81.9066 412.636 83.342C413.715 86.8138 411.312 90.2974 409.201 93.2616C407.089 96.2258 405.118 100.153 406.926 103.292C407.441 104.048 407.998 104.774 408.594 105.468C410.828 108.485 410.799 112.558 411.79 116.182C413.057 120.817 416.05 124.792 420.155 127.288C424.26 129.784 429.165 130.612 433.862 129.602C432.094 127.344 431.212 124.518 431.383 121.655C431.517 119.578 432.188 117.407 431.383 115.487C430.344 113.019 427.3 112.045 425.731 109.886C424.162 107.727 424.267 104.733 425.025 102.16C425.783 99.5868 427.096 97.2002 427.726 94.5745C427.881 93.8084 428.076 93.0507 428.309 92.3046C429.405 89.1887 432.683 87.3798 435.891 86.6038C439.099 85.8277 442.471 85.781 445.603 84.7599C448.735 83.7388 451.78 81.3464 452.142 78.0613C449.505 79.1174 447.061 76.3633 444.518 75.0971C440.33 73.0198 435.553 74.9745 431.237 75.453C426.32 76.0015 421.654 73.9651 416.678 74.3268Z" fill="black"/>
<path d="M416.439 73.8542C413.721 74.0642 410.688 75.9431 410.839 78.6681C410.921 80.1677 411.948 81.4339 412.397 82.8693C413.476 86.3412 411.073 89.8247 408.961 92.7889C406.85 95.7531 404.878 99.6801 406.686 102.819C407.202 103.575 407.759 104.302 408.355 104.996C410.589 108.013 410.559 112.085 411.551 115.709C412.817 120.345 415.811 124.319 419.916 126.815C424.021 129.311 428.926 130.14 433.622 129.13C431.854 126.872 430.973 124.045 431.143 121.182C431.278 119.105 431.948 116.934 431.143 115.015C430.105 112.546 427.061 111.572 425.491 109.413C423.922 107.254 424.027 104.261 424.786 101.687C425.544 99.1141 426.856 96.7276 427.486 94.1018C427.642 93.3357 427.836 92.5781 428.07 91.832C429.166 88.716 432.444 86.9072 435.652 86.1311C438.86 85.3551 442.232 85.3084 445.364 84.2873C448.496 83.2661 451.541 80.8738 451.902 77.5886C449.266 78.6448 446.822 75.8906 444.279 74.6244C440.091 72.5471 435.314 74.5019 430.998 74.9804C426.092 75.523 421.443 73.4632 416.439 73.8542Z" fill="#493545"/>
<path opacity="0.1" d="M443.614 120.82C443.614 120.82 448.56 125.238 449.535 127.186L443.614 120.82Z" fill="black"/>
<path opacity="0.1" d="M454.317 147.201C454.317 147.201 448.14 147.201 445.288 147.913C442.436 148.624 435.547 147.913 435.547 147.913" fill="black"/>
<g opacity="0.1">
<path opacity="0.1" d="M450.147 126.877C449.614 127.182 449.038 127.403 448.438 127.531C449.987 127.874 451.609 127.642 452.999 126.877C461.317 122.122 444.209 111.432 444.209 111.432H441.357C441.357 111.432 458.464 122.127 450.147 126.877Z" fill="black"/>
<path opacity="0.1" d="M484.176 61.0054C484.176 60.8537 484.141 60.7078 484.117 60.5736C483.14 60.7762 482.153 60.9262 481.16 61.0229C482.163 61.1332 483.175 61.1274 484.176 61.0054Z" fill="black"/>
<path opacity="0.1" d="M423.304 174.649C428.291 170.844 425.445 149.22 425.445 149.22C425.445 149.22 416.894 135.91 416.655 130.921C416.416 125.932 396.94 100.976 396.94 100.976C394.327 99.5518 391.475 94.3236 391.475 94.3236C391.475 94.3236 375.318 67.9433 372.944 66.9922L388.622 94.3236C388.622 94.3236 391.475 99.5751 394.088 100.976C394.088 100.976 413.569 125.932 413.803 130.921C414.036 135.91 422.587 149.237 422.587 149.237C422.587 149.237 425.439 170.862 420.446 174.666C420.446 174.666 437.531 179.048 447.773 178.652C437.507 178.29 423.304 174.649 423.304 174.649Z" fill="black"/>
<path opacity="0.1" d="M428.431 113.754L428.291 113.573C428.129 113.621 427.963 113.659 427.795 113.684C428.017 113.713 428.227 113.737 428.431 113.754Z" fill="black"/>
</g>
<g opacity="0.1">
<path opacity="0.1" d="M484.117 60.5445L483.971 60.5737C483.72 67.8733 478.657 85.0225 478.657 85.0225C478.657 88.1093 475.333 92.8648 475.333 92.8648C475.333 92.8648 461.555 114.017 458.464 116.87C455.373 119.724 456.563 125.424 456.563 125.424L456.592 125.483C456.498 123.563 456.732 120.587 458.697 118.767C461.783 115.913 475.566 94.7612 475.566 94.7612C475.566 94.7612 478.891 90.0056 478.891 86.9189C478.891 86.9539 485.067 66.0411 484.117 60.5445Z" fill="black"/>
<path opacity="0.1" d="M453.95 145.415C454.306 147.434 454.066 145.299 454.189 147.317C454.189 147.317 460.022 140.473 458.429 132.012C458.908 139.574 453.95 145.415 453.95 145.415Z" fill="black"/>
</g>
<path opacity="0.1" d="M274.02 386C411.788 386 523.471 375.268 523.471 362.03C523.471 348.791 411.788 338.059 274.02 338.059C136.251 338.059 24.5679 348.791 24.5679 362.03C24.5679 375.268 136.251 386 274.02 386Z" fill="#CBEEC2"/>
<path d="M177.323 337.709C177.323 337.709 168.83 308.855 178.915 287.621C183.205 278.741 184.498 268.708 182.602 259.029C181.665 254.442 180.31 249.949 178.554 245.609" stroke="#535461" stroke-width="2" stroke-miterlimit="10"/>
<path d="M184.842 232.2C184.842 235.736 178.426 245.988 178.426 245.988C178.426 245.988 172.01 235.736 172.01 232.2C171.945 231.319 172.062 230.435 172.354 229.602C172.646 228.769 173.106 228.005 173.707 227.358C174.308 226.711 175.035 226.195 175.844 225.843C176.653 225.49 177.526 225.308 178.408 225.308C179.291 225.308 180.164 225.49 180.973 225.843C181.782 226.195 182.509 226.711 183.11 227.358C183.71 228.005 184.171 228.769 184.463 229.602C184.755 230.435 184.872 231.319 184.807 232.2H184.842Z" fill="#CBEEC2"/>
<path d="M195.405 251.782C193.486 254.752 182.543 259.875 182.543 259.875C182.543 259.875 182.742 247.791 184.661 244.821C185.086 244.05 185.666 243.375 186.364 242.838C187.062 242.3 187.862 241.913 188.716 241.698C189.57 241.484 190.459 241.448 191.328 241.592C192.197 241.736 193.026 242.058 193.765 242.537C194.504 243.015 195.137 243.641 195.624 244.375C196.11 245.109 196.441 245.936 196.595 246.803C196.749 247.67 196.722 248.56 196.518 249.416C196.313 250.273 195.934 251.078 195.405 251.782Z" fill="#CBEEC2"/>
<path d="M194.944 285.258C191.789 286.851 179.779 285.748 179.779 285.748C179.779 285.748 186.049 275.414 189.205 273.821C189.961 273.367 190.803 273.074 191.678 272.959C192.553 272.845 193.442 272.913 194.29 273.158C195.137 273.403 195.925 273.821 196.604 274.384C197.283 274.948 197.839 275.646 198.236 276.434C198.633 277.222 198.864 278.083 198.913 278.965C198.963 279.846 198.83 280.728 198.523 281.556C198.216 282.383 197.742 283.139 197.131 283.775C196.519 284.411 195.782 284.914 194.967 285.252L194.944 285.258Z" fill="#CBEEC2"/>
<path d="M188.896 310.5C186.055 312.601 174.004 313.552 174.004 313.552C174.004 313.552 178.437 302.308 181.284 300.201C182.654 299.369 184.285 299.079 185.858 299.39C187.43 299.7 188.83 300.588 189.781 301.879C190.731 303.17 191.165 304.77 190.996 306.364C190.827 307.959 190.067 309.432 188.866 310.495L188.896 310.5Z" fill="#CBEEC2"/>
<path d="M169.093 260.564C171.63 263.026 183.442 265.582 183.442 265.582C183.442 265.582 180.525 253.848 178.012 251.38C177.425 250.722 176.709 250.192 175.909 249.823C175.109 249.454 174.241 249.254 173.36 249.235C172.479 249.217 171.604 249.38 170.788 249.714C169.973 250.049 169.236 250.548 168.622 251.18C168.008 251.812 167.53 252.564 167.22 253.389C166.909 254.214 166.771 255.094 166.816 255.975C166.86 256.855 167.085 257.717 167.477 258.507C167.869 259.296 168.419 259.996 169.093 260.564Z" fill="#CBEEC2"/>
<path d="M162.403 290.183C165.558 291.776 177.568 290.673 177.568 290.673C177.568 290.673 171.321 280.339 168.166 278.775C166.67 278.154 164.994 278.122 163.475 278.685C161.956 279.248 160.706 280.366 159.977 281.813C159.247 283.26 159.092 284.929 159.542 286.486C159.992 288.043 161.014 289.372 162.403 290.206V290.183Z" fill="#CBEEC2"/>
<path d="M159.836 319.86C162.677 321.96 174.727 322.912 174.727 322.912C174.727 322.912 170.295 311.667 167.448 309.561C166.781 308.971 165.998 308.526 165.15 308.255C164.301 307.983 163.406 307.892 162.52 307.986C161.634 308.08 160.778 308.358 160.005 308.801C159.233 309.244 158.561 309.844 158.032 310.561C157.504 311.278 157.131 312.098 156.936 312.967C156.742 313.837 156.73 314.737 156.903 315.611C157.075 316.486 157.428 317.314 157.938 318.045C158.448 318.775 159.104 319.391 159.865 319.854L159.836 319.86Z" fill="#CBEEC2"/>
<path opacity="0.1" d="M184.842 232.2C184.842 235.736 178.426 245.988 178.426 245.988C178.426 245.988 172.01 235.736 172.01 232.2C171.945 231.319 172.062 230.435 172.354 229.602C172.646 228.769 173.106 228.005 173.707 227.358C174.308 226.711 175.035 226.195 175.844 225.843C176.653 225.49 177.526 225.308 178.408 225.308C179.291 225.308 180.164 225.49 180.973 225.843C181.782 226.195 182.509 226.711 183.11 227.358C183.71 228.005 184.171 228.769 184.463 229.602C184.755 230.435 184.872 231.319 184.807 232.2H184.842Z" fill="#CBEEC2"/>
<path opacity="0.1" d="M195.405 251.782C193.486 254.752 182.543 259.875 182.543 259.875C182.543 259.875 182.742 247.791 184.661 244.821C185.086 244.05 185.666 243.375 186.364 242.838C187.062 242.3 187.862 241.913 188.716 241.698C189.57 241.484 190.459 241.448 191.328 241.592C192.197 241.736 193.026 242.058 193.765 242.537C194.504 243.015 195.137 243.641 195.624 244.375C196.11 245.109 196.441 245.936 196.595 246.803C196.749 247.67 196.722 248.56 196.518 249.416C196.313 250.273 195.934 251.078 195.405 251.782Z" fill="#CBEEC2"/>
<path opacity="0.1" d="M194.944 285.258C191.789 286.851 179.779 285.748 179.779 285.748C179.779 285.748 186.049 275.414 189.205 273.821C189.961 273.367 190.803 273.074 191.678 272.959C192.553 272.845 193.442 272.913 194.29 273.158C195.137 273.403 195.925 273.821 196.604 274.384C197.283 274.948 197.839 275.646 198.236 276.434C198.633 277.222 198.864 278.083 198.913 278.965C198.963 279.846 198.83 280.728 198.523 281.556C198.216 282.383 197.742 283.139 197.131 283.775C196.519 284.411 195.782 284.914 194.967 285.252L194.944 285.258Z" fill="#CBEEC2"/>
<path opacity="0.1" d="M188.896 310.5C186.055 312.601 174.004 313.552 174.004 313.552C174.004 313.552 178.437 302.308 181.284 300.201C182.654 299.369 184.285 299.079 185.858 299.39C187.43 299.7 188.83 300.588 189.781 301.879C190.731 303.17 191.165 304.77 190.996 306.364C190.827 307.959 190.067 309.432 188.866 310.495L188.896 310.5Z" fill="#CBEEC2"/>
<path opacity="0.1" d="M169.093 260.564C171.63 263.026 183.442 265.582 183.442 265.582C183.442 265.582 180.525 253.848 178.012 251.38C177.425 250.722 176.709 250.192 175.909 249.823C175.109 249.454 174.241 249.254 173.36 249.235C172.479 249.217 171.604 249.38 170.788 249.714C169.973 250.049 169.236 250.548 168.622 251.18C168.008 251.812 167.53 252.564 167.22 253.389C166.909 254.214 166.771 255.094 166.816 255.975C166.86 256.855 167.085 257.717 167.477 258.507C167.869 259.296 168.419 259.996 169.093 260.564Z" fill="#CBEEC2"/>
<path opacity="0.1" d="M162.403 290.183C165.558 291.776 177.568 290.673 177.568 290.673C177.568 290.673 171.321 280.339 168.166 278.775C166.67 278.154 164.994 278.122 163.475 278.685C161.956 279.248 160.706 280.366 159.977 281.813C159.247 283.26 159.092 284.929 159.542 286.486C159.992 288.043 161.014 289.372 162.403 290.206V290.183Z" fill="#CBEEC2"/>
<path opacity="0.1" d="M159.836 319.86C162.677 321.96 174.727 322.912 174.727 322.912C174.727 322.912 170.295 311.667 167.448 309.561C166.781 308.971 165.998 308.526 165.15 308.255C164.301 307.983 163.406 307.892 162.52 307.986C161.634 308.08 160.778 308.358 160.005 308.801C159.233 309.244 158.561 309.844 158.032 310.561C157.504 311.278 157.131 312.098 156.936 312.967C156.742 313.837 156.73 314.737 156.903 315.611C157.075 316.486 157.428 317.314 157.938 318.045C158.448 318.775 159.104 319.391 159.865 319.854L159.836 319.86Z" fill="#CBEEC2"/>
<path d="M349.181 338.124C349.181 338.124 340.688 309.269 350.773 288.035C355.062 279.155 356.356 269.122 354.46 259.444C353.523 254.856 352.168 250.364 350.412 246.023" stroke="#535461" stroke-width="2" stroke-miterlimit="10"/>
<path d="M356.688 232.608C356.688 236.144 350.272 246.397 350.272 246.397C350.272 246.397 343.855 236.144 343.855 232.608C343.975 230.992 344.701 229.482 345.888 228.379C347.075 227.276 348.634 226.664 350.254 226.664C351.874 226.664 353.433 227.276 354.62 228.379C355.807 229.482 356.533 230.992 356.653 232.608H356.688Z" fill="#CBEEC2"/>
<path d="M367.269 252.191C365.35 255.161 354.407 260.284 354.407 260.284C354.407 260.284 354.606 248.2 356.525 245.23C356.95 244.458 357.53 243.783 358.228 243.246C358.925 242.709 359.726 242.321 360.58 242.107C361.434 241.892 362.323 241.856 363.192 242.001C364.06 242.145 364.89 242.466 365.629 242.945C366.368 243.424 367.001 244.05 367.487 244.784C367.974 245.518 368.305 246.344 368.459 247.211C368.612 248.078 368.586 248.968 368.381 249.825C368.177 250.681 367.798 251.487 367.269 252.191Z" fill="#CBEEC2"/>
<path d="M366.825 285.666C363.67 287.259 351.66 286.157 351.66 286.157C351.66 286.157 357.93 275.823 361.086 274.23C361.843 273.771 362.687 273.474 363.565 273.358C364.442 273.241 365.335 273.308 366.185 273.553C367.036 273.799 367.826 274.217 368.507 274.783C369.188 275.349 369.745 276.049 370.142 276.841C370.539 277.632 370.769 278.497 370.815 279.382C370.862 280.266 370.725 281.151 370.414 281.98C370.102 282.808 369.623 283.564 369.005 284.198C368.388 284.833 367.645 285.333 366.825 285.666Z" fill="#CBEEC2"/>
<path d="M360.753 310.909C357.913 313.009 345.862 313.961 345.862 313.961C345.862 313.961 350.295 302.716 353.142 300.61C354.511 299.777 356.143 299.488 357.716 299.798C359.288 300.109 360.688 300.997 361.638 302.287C362.589 303.578 363.023 305.178 362.854 306.773C362.685 308.367 361.925 309.841 360.724 310.903L360.753 310.909Z" fill="#CBEEC2"/>
<path d="M340.963 260.972C343.5 263.435 355.311 265.991 355.311 265.991C355.311 265.991 352.395 254.256 349.881 251.788C349.295 251.13 348.579 250.6 347.779 250.231C346.978 249.863 346.111 249.662 345.23 249.644C344.349 249.625 343.473 249.788 342.658 250.123C341.843 250.457 341.105 250.956 340.491 251.589C339.877 252.221 339.4 252.973 339.089 253.798C338.779 254.623 338.641 255.503 338.685 256.383C338.73 257.264 338.955 258.125 339.346 258.915C339.738 259.705 340.288 260.405 340.963 260.972Z" fill="#CBEEC2"/>
<path d="M334.261 290.591C337.416 292.184 349.426 291.081 349.426 291.081C349.426 291.081 343.156 280.747 340 279.154C338.504 278.533 336.828 278.501 335.309 279.064C333.791 279.628 332.541 280.745 331.811 282.192C331.082 283.639 330.927 285.309 331.377 286.865C331.827 288.422 332.849 289.751 334.237 290.585L334.261 290.591Z" fill="#CBEEC2"/>
<path d="M331.7 320.268C334.541 322.369 346.591 323.32 346.591 323.32C346.591 323.32 342.158 312.076 339.312 309.969C337.942 309.137 336.31 308.847 334.738 309.158C333.165 309.468 331.766 310.356 330.815 311.647C329.864 312.938 329.431 314.538 329.6 316.132C329.769 317.727 330.529 319.2 331.729 320.262L331.7 320.268Z" fill="#CBEEC2"/>
<path opacity="0.1" d="M356.688 232.608C356.688 236.144 350.272 246.397 350.272 246.397C350.272 246.397 343.855 236.144 343.855 232.608C343.975 230.992 344.701 229.482 345.888 228.379C347.075 227.276 348.634 226.664 350.254 226.664C351.874 226.664 353.433 227.276 354.62 228.379C355.807 229.482 356.533 230.992 356.653 232.608H356.688Z" fill="#CBEEC2"/>
<path opacity="0.1" d="M367.269 252.191C365.35 255.161 354.407 260.284 354.407 260.284C354.407 260.284 354.606 248.2 356.525 245.23C356.95 244.458 357.53 243.783 358.228 243.246C358.925 242.709 359.726 242.321 360.58 242.107C361.434 241.892 362.323 241.856 363.192 242.001C364.06 242.145 364.89 242.466 365.629 242.945C366.368 243.424 367.001 244.05 367.487 244.784C367.974 245.518 368.305 246.344 368.459 247.211C368.612 248.078 368.586 248.968 368.381 249.825C368.177 250.681 367.798 251.487 367.269 252.191Z" fill="#CBEEC2"/>
<path opacity="0.1" d="M366.825 285.666C363.67 287.259 351.66 286.157 351.66 286.157C351.66 286.157 357.93 275.823 361.086 274.23C361.843 273.771 362.687 273.474 363.565 273.358C364.442 273.241 365.335 273.308 366.185 273.553C367.036 273.799 367.826 274.217 368.507 274.783C369.188 275.349 369.745 276.049 370.142 276.841C370.539 277.632 370.769 278.497 370.815 279.382C370.862 280.266 370.725 281.151 370.414 281.98C370.102 282.808 369.623 283.564 369.005 284.198C368.388 284.833 367.645 285.333 366.825 285.666Z" fill="#F1C2C2"/>
<path opacity="0.1" d="M360.753 310.909C357.913 313.009 345.862 313.961 345.862 313.961C345.862 313.961 350.295 302.716 353.142 300.61C354.511 299.777 356.143 299.488 357.716 299.798C359.288 300.109 360.688 300.997 361.638 302.287C362.589 303.578 363.023 305.178 362.854 306.773C362.685 308.367 361.925 309.841 360.724 310.903L360.753 310.909Z" fill="#AD2525"/>
<path opacity="0.1" d="M340.963 260.972C343.5 263.435 355.311 265.991 355.311 265.991C355.311 265.991 352.395 254.256 349.881 251.788C349.295 251.13 348.579 250.6 347.779 250.231C346.978 249.863 346.111 249.662 345.23 249.644C344.349 249.625 343.473 249.788 342.658 250.123C341.843 250.457 341.105 250.956 340.491 251.589C339.877 252.221 339.4 252.973 339.089 253.798C338.779 254.623 338.641 255.503 338.685 256.383C338.73 257.264 338.955 258.125 339.346 258.915C339.738 259.705 340.288 260.405 340.963 260.972Z" fill="#CBEEC2"/>
<path opacity="0.1" d="M334.261 290.591C337.416 292.184 349.426 291.081 349.426 291.081C349.426 291.081 343.156 280.747 340 279.154C338.504 278.533 336.828 278.501 335.309 279.064C333.791 279.628 332.541 280.745 331.811 282.192C331.082 283.639 330.927 285.309 331.377 286.865C331.827 288.422 332.849 289.751 334.237 290.585L334.261 290.591Z" fill="#CBEEC2"/>
<path opacity="0.1" d="M331.7 320.268C334.541 322.369 346.591 323.32 346.591 323.32C346.591 323.32 342.158 312.076 339.312 309.969C337.942 309.137 336.31 308.847 334.738 309.158C333.165 309.468 331.766 310.356 330.815 311.647C329.864 312.938 329.431 314.538 329.6 316.132C329.769 317.727 330.529 319.2 331.729 320.262L331.7 320.268Z" fill="#CBEEC2"/>
<path opacity="0.5" d="M390.74 8.93344H387.077C387.424 8.95 387.77 8.89593 388.096 8.77453C388.421 8.65312 388.718 8.4669 388.97 8.22713C389.221 7.98737 389.421 7.69905 389.558 7.37965C389.695 7.06024 389.765 6.71639 389.765 6.36893C389.765 6.02147 389.695 5.67763 389.558 5.35823C389.421 5.03882 389.221 4.7505 388.97 4.51073C388.718 4.27097 388.421 4.08474 388.096 3.96334C387.77 3.84193 387.424 3.78787 387.077 3.80443H357.376C356.717 3.83587 356.096 4.11979 355.641 4.59728C355.186 5.07477 354.932 5.70919 354.932 6.36893C354.932 7.02867 355.186 7.66309 355.641 8.14058C356.096 8.61808 356.717 8.90199 357.376 8.93344H361.039C360.38 8.96488 359.759 9.2488 359.304 9.72629C358.849 10.2038 358.595 10.8382 358.595 11.4979C358.595 12.1577 358.849 12.7921 359.304 13.2696C359.759 13.7471 360.38 14.031 361.039 14.0624H355.912C355.565 14.0459 355.218 14.0999 354.893 14.2214C354.567 14.3428 354.27 14.529 354.019 14.7687C353.767 15.0085 353.567 15.2968 353.43 15.6162C353.294 15.9356 353.223 16.2795 353.223 16.6269C353.223 16.9744 353.294 17.3182 353.43 17.6377C353.567 17.9571 353.767 18.2454 354.019 18.4851C354.27 18.7249 354.567 18.9111 354.893 19.0325C355.218 19.1539 355.565 19.208 355.912 19.1915H385.589C385.936 19.208 386.283 19.1539 386.608 19.0325C386.934 18.9111 387.231 18.7249 387.483 18.4851C387.734 18.2454 387.934 17.9571 388.071 17.6377C388.207 17.3182 388.278 16.9744 388.278 16.6269C388.278 16.2795 388.207 15.9356 388.071 15.6162C387.934 15.2968 387.734 15.0085 387.483 14.7687C387.231 14.529 386.934 14.3428 386.608 14.2214C386.283 14.0999 385.936 14.0459 385.589 14.0624H390.74C391.398 14.031 392.02 13.7471 392.475 13.2696C392.93 12.7921 393.184 12.1577 393.184 11.4979C393.184 10.8382 392.93 10.2038 392.475 9.72629C392.02 9.2488 391.398 8.96488 390.74 8.93344Z" fill="#DEE3F3"/>
<path opacity="0.5" d="M219.127 23.8945H216.339C216.604 23.9091 216.87 23.8693 217.119 23.7778C217.368 23.6863 217.596 23.5448 217.789 23.3622C217.982 23.1795 218.136 22.9594 218.241 22.7154C218.346 22.4713 218.4 22.2084 218.4 21.9427C218.4 21.677 218.346 21.4141 218.241 21.1701C218.136 20.926 217.982 20.7059 217.789 20.5233C217.596 20.3406 217.368 20.1992 217.119 20.1076C216.87 20.0161 216.604 19.9764 216.339 19.9909H193.754C193.255 20.0182 192.786 20.2357 192.442 20.5988C192.099 20.9618 191.907 21.4428 191.907 21.9427C191.907 22.4427 192.099 22.9236 192.442 23.2867C192.786 23.6497 193.255 23.8672 193.754 23.8945H196.542C196.277 23.88 196.012 23.9198 195.763 24.0113C195.513 24.1028 195.285 24.2442 195.092 24.4269C194.899 24.6096 194.746 24.8297 194.641 25.0737C194.536 25.3178 194.482 25.5807 194.482 25.8464C194.482 26.1121 194.536 26.375 194.641 26.619C194.746 26.8631 194.899 27.0831 195.092 27.2658C195.285 27.4485 195.513 27.5899 195.763 27.6814C196.012 27.773 196.277 27.8127 196.542 27.7982H192.64C192.375 27.7837 192.11 27.8234 191.86 27.9149C191.611 28.0065 191.383 28.1479 191.19 28.3306C190.997 28.5132 190.844 28.7333 190.739 28.9774C190.634 29.2214 190.58 29.4843 190.58 29.75C190.58 30.0157 190.634 30.2786 190.739 30.5227C190.844 30.7667 190.997 30.9868 191.19 31.1695C191.383 31.3521 191.611 31.4936 191.86 31.5851C192.11 31.6766 192.375 31.7163 192.64 31.7018H215.225C215.49 31.7163 215.755 31.6766 216.005 31.5851C216.254 31.4936 216.482 31.3521 216.675 31.1695C216.868 30.9868 217.022 30.7667 217.127 30.5227C217.232 30.2786 217.286 30.0157 217.286 29.75C217.286 29.4843 217.232 29.2214 217.127 28.9774C217.022 28.7333 216.868 28.5132 216.675 28.3306C216.482 28.1479 216.254 28.0065 216.005 27.9149C215.755 27.8234 215.49 27.7837 215.225 27.7982H219.127C219.626 27.7709 220.096 27.5533 220.439 27.1903C220.783 26.8273 220.974 26.3463 220.974 25.8464C220.974 25.3464 220.783 24.8655 220.439 24.5024C220.096 24.1394 219.626 23.9218 219.127 23.8945Z" fill="#DEE3F3"/>
<path d="M29.5605 300.365C29.5605 300.365 39.7679 320.408 31.4503 331.372C23.1327 342.336 32.2086 372.218 32.2086 372.218" stroke="#CBEEC2" stroke-miterlimit="10"/>
<path d="M32.6055 294.098C32.6055 297.961 29.7708 301.1 29.7708 301.1C29.7708 301.1 26.936 297.967 26.936 294.098C26.936 290.229 29.7708 287.096 29.7708 287.096C29.7708 287.096 32.6055 290.235 32.6055 294.098Z" fill="#CBEEC2"/>
<path d="M34.8508 300.365C34.8508 300.365 24.6434 320.408 32.961 331.372C41.2785 342.336 32.2027 372.218 32.2027 372.218" stroke="#CBEEC2" stroke-miterlimit="10"/>
<path d="M31.8296 294.098C31.8296 297.961 34.6643 301.1 34.6643 301.1C34.6643 301.1 37.4991 297.967 37.4991 294.098C37.4991 290.229 34.6643 287.096 34.6643 287.096C34.6643 287.096 31.8296 290.235 31.8296 294.098Z" fill="#CBEEC2"/>
<path opacity="0.1" d="M31.8296 294.098C31.8296 297.961 34.6643 301.1 34.6643 301.1C34.6643 301.1 37.4991 297.967 37.4991 294.098C37.4991 290.229 34.6643 287.096 34.6643 287.096C34.6643 287.096 31.8296 290.235 31.8296 294.098Z" fill="black"/>
<path d="M39.0214 300.365C39.0214 300.365 49.2288 320.408 40.9112 331.372C32.5936 342.336 41.6695 372.218 41.6695 372.218" stroke="#CBEEC2" stroke-miterlimit="10"/>
<path d="M42.0372 294.098C42.0372 297.961 39.2024 301.1 39.2024 301.1C39.2024 301.1 36.3677 297.967 36.3677 294.098C36.3677 290.229 39.2024 287.096 39.2024 287.096C39.2024 287.096 42.0372 290.235 42.0372 294.098Z" fill="#CBEEC2"/>
<path d="M40.4447 310.156C37.7674 312.939 33.5503 313.231 33.5503 313.231C33.5503 313.231 33.6786 309.007 36.3559 306.229C39.0331 303.452 43.2502 303.154 43.2502 303.154C43.2502 303.154 43.1044 307.367 40.4447 310.156Z" fill="#CBEEC2"/>
<path d="M40.7132 323.985C38.036 326.768 33.8188 327.06 33.8188 327.06C33.8188 327.06 33.9472 322.836 36.6244 320.058C39.3017 317.281 43.5188 316.983 43.5188 316.983C43.5188 316.983 43.3905 321.196 40.7132 323.985Z" fill="#CBEEC2"/>
<path d="M26.1895 331.588C28.7209 334.506 28.6334 338.73 28.6334 338.73C28.6334 338.73 24.4396 338.223 21.9082 335.305C19.3767 332.388 19.4642 328.163 19.4642 328.163C19.4642 328.163 23.658 328.671 26.1895 331.588Z" fill="#CBEEC2"/>
<path d="M28.5225 302.115C31.7422 304.251 32.7862 308.347 32.7862 308.347C32.7862 308.347 28.61 308.983 25.3902 306.848C22.1705 304.712 21.1265 300.616 21.1265 300.616C21.1265 300.616 25.3202 299.968 28.5225 302.115Z" fill="#CBEEC2"/>
<path opacity="0.1" d="M28.5225 302.115C31.7422 304.251 32.7862 308.347 32.7862 308.347C32.7862 308.347 28.61 308.983 25.3902 306.848C22.1705 304.712 21.1265 300.616 21.1265 300.616C21.1265 300.616 25.3202 299.968 28.5225 302.115Z" fill="black"/>
<path d="M44.3 300.365C44.3 300.365 34.0926 320.408 42.4102 331.372C50.7278 342.336 41.6519 372.218 41.6519 372.218" stroke="#CBEEC2" stroke-miterlimit="10"/>
<path d="M41.2788 294.098C41.2788 297.961 44.1136 301.1 44.1136 301.1C44.1136 301.1 46.9483 297.967 46.9483 294.098C46.9483 290.229 44.1136 287.096 44.1136 287.096C44.1136 287.096 41.2788 290.235 41.2788 294.098Z" fill="#CBEEC2"/>
<path opacity="0.1" d="M41.2788 294.098C41.2788 297.961 44.1136 301.1 44.1136 301.1C44.1136 301.1 46.9483 297.967 46.9483 294.098C46.9483 290.229 44.1136 287.096 44.1136 287.096C44.1136 287.096 41.2788 290.235 41.2788 294.098Z" fill="black"/>
<path d="M42.0956 310.454C39.3833 313.208 39.1792 317.456 39.1792 317.456C39.1792 317.456 43.3963 317.216 46.1086 314.462C48.8208 311.708 49.025 307.46 49.025 307.46C49.025 307.46 44.8079 307.7 42.0956 310.454Z" fill="#CBEEC2"/>
<path opacity="0.1" d="M42.0956 310.454C39.3833 313.208 39.1792 317.456 39.1792 317.456C39.1792 317.456 43.3963 317.216 46.1086 314.462C48.8208 311.708 49.025 307.46 49.025 307.46C49.025 307.46 44.8079 307.7 42.0956 310.454Z" fill="black"/>
<path d="M47.4091 329.598C44.6968 332.353 44.4927 336.6 44.4927 336.6C44.4927 336.6 48.7098 336.361 51.422 333.607C54.1343 330.853 54.3385 326.605 54.3385 326.605C54.3385 326.605 50.1038 326.844 47.4091 329.598Z" fill="#CBEEC2"/>
<path d="M39.605 325.391C39.605 325.391 45.7469 315.705 54.3737 315.472" stroke="#CBEEC2" stroke-miterlimit="10"/>
<path d="M34.8043 319.539C34.8043 319.539 28.6624 309.853 20.0356 309.619" stroke="#CBEEC2" stroke-miterlimit="10"/>
<path d="M34.0054 333.368C34.0054 333.368 40.1473 323.682 48.774 323.448" stroke="#CBEEC2" stroke-miterlimit="10"/>
<path d="M54.0758 317.012C54.9552 317.012 55.6681 316.299 55.6681 315.419C55.6681 314.539 54.9552 313.826 54.0758 313.826C53.1963 313.826 52.4834 314.539 52.4834 315.419C52.4834 316.299 53.1963 317.012 54.0758 317.012Z" fill="#CBEEC2"/>
<path d="M20.1876 311.294C21.067 311.294 21.7799 310.581 21.7799 309.701C21.7799 308.821 21.067 308.108 20.1876 308.108C19.3081 308.108 18.5952 308.821 18.5952 309.701C18.5952 310.581 19.3081 311.294 20.1876 311.294Z" fill="#CBEEC2"/>
<path d="M38.5255 336.542C38.5255 336.542 32.3836 326.856 23.7568 326.623" stroke="#CBEEC2" stroke-miterlimit="10"/>
<path d="M23.9088 328.309C24.7882 328.309 25.5011 327.596 25.5011 326.716C25.5011 325.836 24.7882 325.123 23.9088 325.123C23.0293 325.123 22.3164 325.836 22.3164 326.716C22.3164 327.596 23.0293 328.309 23.9088 328.309Z" fill="#CBEEC2"/>
<path d="M48.8907 325.123C49.7701 325.123 50.4831 324.41 50.4831 323.53C50.4831 322.65 49.7701 321.937 48.8907 321.937C48.0113 321.937 47.2983 322.65 47.2983 323.53C47.2983 324.41 48.0113 325.123 48.8907 325.123Z" fill="#CBEEC2"/>
<path d="M72.4899 360.553C72.4899 360.553 57.6863 357.589 53.7316 353.639C49.777 349.689 32.0219 342.78 30.0446 347.716C28.0673 352.653 3.39449 369.44 20.1755 372.404C36.9565 375.369 59.6577 376.355 64.5923 374.377C69.5269 372.399 72.4899 360.553 72.4899 360.553Z" fill="#A8A8A8"/>
<path opacity="0.2" d="M20.1755 370.566C36.9565 373.53 59.6578 374.517 64.5924 372.539C68.3487 371.033 70.9618 363.786 71.9942 360.448L72.49 360.553C72.49 360.553 69.5269 372.404 64.5924 374.377C59.6578 376.349 36.9565 375.363 20.1755 372.404C15.3343 371.547 13.9461 369.539 14.4711 367.001C14.8793 368.635 16.5709 369.93 20.1755 370.566Z" fill="black"/>
<path d="M521.937 304.905C521.937 304.905 526.825 311.323 519.68 320.951C512.535 330.579 506.644 338.754 509.029 344.775C509.029 344.775 519.808 326.844 528.581 326.593C537.353 326.342 531.59 315.682 521.937 304.905Z" fill="#CBEEC2"/>
<path opacity="0.1" d="M521.937 304.905C522.363 305.523 522.699 306.199 522.935 306.912C531.497 316.971 536.053 326.36 527.828 326.599C520.164 326.821 510.971 340.527 508.767 343.994C508.839 344.261 508.927 344.524 509.029 344.781C509.029 344.781 519.808 326.85 528.581 326.599C537.353 326.348 531.59 315.682 521.937 304.905Z" fill="black"/>
<path d="M531.025 313.05C531.025 315.303 530.774 317.135 530.441 317.135C530.109 317.135 529.858 315.308 529.858 313.05C529.858 310.792 530.173 311.883 530.482 311.883C530.791 311.883 531.025 310.804 531.025 313.05Z" fill="#FFD037"/>
<path d="M534.145 315.74C532.168 316.82 530.447 317.491 530.301 317.193C530.156 316.896 531.631 315.822 533.609 314.748C535.586 313.675 534.804 314.457 534.956 314.748C535.108 315.04 536.117 314.661 534.145 315.74Z" fill="#FFD037"/>
<path d="M496.121 304.905C496.121 304.905 491.233 311.323 498.378 320.951C505.523 330.579 511.415 338.754 509.029 344.775C509.029 344.775 498.25 326.844 489.477 326.593C480.705 326.342 486.468 315.682 496.121 304.905Z" fill="#CBEEC2"/>
<path opacity="0.1" d="M496.121 304.905C495.695 305.523 495.359 306.199 495.124 306.912C486.561 316.971 482.006 326.36 490.23 326.599C497.894 326.821 507.087 340.527 509.291 343.994C509.219 344.261 509.131 344.524 509.029 344.781C509.029 344.781 498.25 326.85 489.477 326.599C480.705 326.348 486.468 315.682 496.121 304.905Z" fill="black"/>
<path d="M487.034 313.05C487.034 315.303 487.285 317.135 487.617 317.135C487.949 317.135 488.2 315.308 488.2 313.05C488.2 310.792 487.885 311.883 487.576 311.883C487.267 311.883 487.034 310.804 487.034 313.05Z" fill="#FFD037"/>
<path d="M483.913 315.74C485.89 316.82 487.611 317.491 487.757 317.193C487.903 316.896 486.427 315.822 484.45 314.748C482.472 313.675 483.254 314.457 483.102 314.748C482.951 315.04 481.936 314.661 483.913 315.74Z" fill="#FFD037"/>
<path d="M488.591 343.935C488.591 343.935 502.257 343.515 506.375 340.58C510.493 337.645 527.373 334.162 528.417 338.83C529.461 343.498 548.955 362.234 533.527 362.356C518.099 362.479 497.678 359.952 493.566 357.449C489.454 354.946 488.591 343.935 488.591 343.935Z" fill="#A8A8A8"/>
<path opacity="0.2" d="M533.801 360.74C518.373 360.863 497.952 358.336 493.84 355.833C490.708 353.925 489.46 347.08 489.046 343.923H488.591C488.591 343.923 489.454 354.952 493.566 357.455C497.678 359.958 518.099 362.491 533.527 362.362C537.983 362.327 539.517 360.74 539.435 358.394C538.817 359.824 537.143 360.711 533.801 360.74Z" fill="black"/>
<path opacity="0.5" d="M103.73 43.5528H100.067C100.414 43.5693 100.761 43.5153 101.086 43.3939C101.412 43.2724 101.709 43.0862 101.961 42.8465C102.212 42.6067 102.412 42.3184 102.549 41.999C102.686 41.6796 102.756 41.3357 102.756 40.9883C102.756 40.6408 102.686 40.2969 102.549 39.9775C102.412 39.6581 102.212 39.3698 101.961 39.1301C101.709 38.8903 101.412 38.7041 101.086 38.5827C100.761 38.4613 100.414 38.4072 100.067 38.4238H70.3901C69.7314 38.4552 69.11 38.7391 68.6549 39.2166C68.1998 39.6941 67.946 40.3285 67.946 40.9883C67.946 41.648 68.1998 42.2824 68.6549 42.7599C69.11 43.2374 69.7314 43.5213 70.3901 43.5528H74.0531C73.3944 43.5842 72.773 43.8681 72.3179 44.3456C71.8628 44.8231 71.609 45.4575 71.609 46.1173C71.609 46.777 71.8628 47.4114 72.3179 47.8889C72.773 48.3664 73.3944 48.6503 74.0531 48.6818H68.9261C68.2673 48.7132 67.646 48.9971 67.1909 49.4746C66.7358 49.9521 66.4819 50.5865 66.4819 51.2463C66.4819 51.906 66.7358 52.5404 67.1909 53.0179C67.646 53.4954 68.2673 53.7793 68.9261 53.8108H98.6034C98.9503 53.8273 99.297 53.7733 99.6224 53.6519C99.9478 53.5305 100.245 53.3442 100.497 53.1045C100.748 52.8647 100.948 52.5764 101.085 52.257C101.222 51.9376 101.292 51.5937 101.292 51.2463C101.292 50.8988 101.222 50.555 101.085 50.2356C100.948 49.9162 100.748 49.6278 100.497 49.3881C100.245 49.1483 99.9478 48.9621 99.6224 48.8407C99.297 48.7193 98.9503 48.6652 98.6034 48.6818H103.73C104.389 48.6503 105.011 48.3664 105.466 47.8889C105.921 47.4114 106.175 46.777 106.175 46.1173C106.175 45.4575 105.921 44.8231 105.466 44.3456C105.011 43.8681 104.389 43.5842 103.73 43.5528Z" fill="#DEE3F3"/>
</g>
<defs>
<linearGradient id="paint0_linear" x1="268.601" y1="317.286" x2="268.601" y2="75.7156" gradientUnits="userSpaceOnUse">
<stop stop-color="#808080" stop-opacity="0.25"/>
<stop offset="0.54" stop-color="#808080" stop-opacity="0.12"/>
<stop offset="1" stop-color="#808080" stop-opacity="0.1"/>
</linearGradient>
<linearGradient id="paint1_linear" x1="223.32" y1="276.21" x2="223.32" y2="276.182" gradientUnits="userSpaceOnUse">
<stop stop-color="#808080" stop-opacity="0.25"/>
<stop offset="0.54" stop-color="#808080" stop-opacity="0.12"/>
<stop offset="1" stop-color="#808080" stop-opacity="0.1"/>
</linearGradient>
<linearGradient id="paint2_linear" x1="37560.7" y1="117984" x2="37560.7" y2="52897.9" gradientUnits="userSpaceOnUse">
<stop stop-color="#808080" stop-opacity="0.25"/>
<stop offset="0.54" stop-color="#808080" stop-opacity="0.12"/>
<stop offset="1" stop-color="#808080" stop-opacity="0.1"/>
</linearGradient>
<linearGradient id="paint3_linear" x1="105808" y1="143019" x2="105808" y2="46356.8" gradientUnits="userSpaceOnUse">
<stop stop-color="#808080" stop-opacity="0.25"/>
<stop offset="0.54" stop-color="#808080" stop-opacity="0.12"/>
<stop offset="1" stop-color="#808080" stop-opacity="0.1"/>
</linearGradient>
<clipPath id="clip0">
<rect width="554" height="386" fill="white"/>
</clipPath>
</defs>
</svg>
